<svg width="33" height="30" viewBox="0 0 33 30" fill="none" xmlns="http://www.w3.org/2000/svg">
    <path d="M15.5518 0.831364C15.8565 -0.0785452 17.1435 -0.0785446 17.4482 0.831365L20.5145 9.98697C20.65 10.3915 21.0271 10.6655 21.4537 10.6694L31.1087 10.7563C32.0683 10.7649 32.466 11.989 31.6948 12.56L23.9348 18.3054C23.592 18.5592 23.4479 19.0026 23.5761 19.4095L26.4769 28.6188C26.7652 29.5341 25.724 30.2906 24.9427 29.7335L17.0805 24.1288C16.7331 23.8812 16.2669 23.8812 15.9195 24.1288L8.05735 29.7335C7.27598 30.2906 6.23477 29.5341 6.52307 28.6188L9.42395 19.4095C9.55212 19.0026 9.40805 18.5592 9.0652 18.3054L1.30522 12.56C0.534014 11.989 0.931721 10.7649 1.89126 10.7563L11.5463 10.6694C11.9729 10.6655 12.35 10.3915 12.4855 9.98697L15.5518 0.831364Z" fill="#FEE233"/>
</svg>
