<svg width="25" height="28" viewBox="0 0 25 28" fill="none" xmlns="http://www.w3.org/2000/svg">
<path d="M12.0407 3.56976C11.7663 3.77835 8.00364 6.57775 3.17806 7.54399C2.54191 18.6795 12.0347 24.4447 12.0407 24.4413C12.0467 24.4447 21.5396 18.6796 20.9034 7.54369C16.0775 6.57775 12.0407 3.56976 12.0407 3.56976Z" fill="#FEE233"/>
<path d="M24.0407 5.74955C24.0214 5.41138 23.776 5.12897 23.4437 5.06218C17.5591 3.88429 12.5348 0.184324 12.4852 0.147386C12.2194 -0.0506996 11.8545 -0.0491064 11.5903 0.152107C11.3921 0.30281 6.67001 3.85508 0.637397 5.06253C0.305012 5.12903 0.0596613 5.41173 0.040189 5.74996C-0.443195 14.2117 3.52696 20.2988 6.9428 23.9149C8.22467 25.2724 9.42752 26.2758 10.211 26.8783C10.6604 27.2238 11.0234 27.4776 11.2486 27.6296C11.6691 27.914 11.7901 27.9955 12.0222 27.9996C12.0318 28 12.0413 28 12.0505 28C12.2795 28 12.4176 27.9077 12.7819 27.6635C12.9791 27.5311 13.2987 27.3107 13.6967 27.0095C14.3902 26.486 15.4625 25.6145 16.634 24.435C18.835 22.2194 20.5873 19.7523 21.8414 17.1026C23.5277 13.5409 24.2677 9.72124 24.0407 5.74955ZM17.5221 21.2058C15.2624 24.0393 12.9271 25.7655 12.0405 26.3683C11.1541 25.7655 8.8188 24.0397 6.55825 21.2044C3.02221 16.7692 1.32205 11.7913 1.50061 6.40004C6.59395 5.24976 10.714 2.58903 12.0444 1.6589C13.3928 2.58767 17.5838 5.26587 22.5803 6.39963C22.7589 11.7915 21.0589 16.7703 17.5221 21.2058Z" fill="#FEE233"/>
</svg>
