<svg width="20" height="25" viewBox="0 0 20 25" fill="none" xmlns="http://www.w3.org/2000/svg">
<rect x="13.2212" y="1.80664" width="5.81055" height="2.83203" transform="rotate(44.666 13.2212 1.80664)" fill="#734ce3"/>
<path d="M18.8284 6.07383L12.9691 0.2146C12.8324 0.0777832 12.6457 0 12.4512 0H2.19726C0.985693 0 0 0.985693 0 2.19727V22.8027C0 24.0143 0.985693 25 2.19726 25H16.8457C18.0573 25 19.043 24.0143 19.043 22.8027V6.5918C19.043 6.39209 18.9591 6.20454 18.8284 6.07383ZM13.1836 2.50063L16.5423 5.85938H13.916C13.5122 5.85938 13.1836 5.53081 13.1836 5.12695V2.50063ZM16.8457 23.5352H2.19726C1.79341 23.5352 1.46484 23.2066 1.46484 22.8027V2.19727C1.46484 1.79341 1.79341 1.46484 2.19726 1.46484H11.7187V5.12695C11.7187 6.33853 12.7044 7.32422 13.916 7.32422H17.5781V22.8027C17.5781 23.2066 17.2496 23.5352 16.8457 23.5352Z" fill="#FEE233"/>
<rect x="0.731934" y="1.07422" width="12.0117" height="22.7051" fill="#FEE233"/>
<rect x="12.0112" y="6.68942" width="5.81055" height="17.0898" fill="#FEE233"/>
<rect x="2.72119" y="14.966" width="6.80272" height="1.36054" rx="0.680272" fill="#734ce3"/>
<rect x="2.72119" y="17.8571" width="10.2041" height="1.36054" rx="0.680272" fill="#734ce3"/>
<rect x="2.72119" y="20.7483" width="13.6054" height="1.36054" rx="0.680272" fill="#734ce3"/>
</svg>
