<svg width="26" height="26" viewBox="0 0 26 26" fill="none" xmlns="http://www.w3.org/2000/svg">
<path d="M6.61367 7.0213L4.36113 7.19533C3.73434 7.24377 3.17611 7.57227 2.82948 8.09659L0.231675 12.0256C-0.0312176 12.4232 -0.0730103 12.9208 0.119805 13.3567C0.312671 13.7926 0.709016 14.0964 1.18001 14.1694L3.24248 14.4888C3.72495 11.9284 4.87991 9.37434 6.61367 7.0213V7.0213Z" fill="#FEE233"/>
<path d="M11.5107 22.7575L11.8302 24.82C11.9032 25.291 12.2069 25.6874 12.6428 25.8802C12.8241 25.9604 13.0161 26 13.2071 26C13.4754 26 13.7418 25.9219 13.974 25.7683L17.9031 23.1705C18.4274 22.8239 18.7559 22.2656 18.8043 21.6389L18.9783 19.3864C16.6252 21.1202 14.0712 22.2751 11.5107 22.7575V22.7575Z" fill="#FEE233"/>
<path d="M10.7358 21.328C10.8074 21.328 10.8794 21.3221 10.9512 21.3101C12.0239 21.1308 13.0578 20.8286 14.0441 20.4332L5.56723 11.9563C5.17174 12.9425 4.8696 13.9764 4.69024 15.0492C4.61955 15.472 4.76138 15.9028 5.0645 16.206L9.79443 20.9359C10.0461 21.1875 10.3858 21.328 10.7358 21.328Z" fill="#FEE233"/>
<path d="M23.9264 11.5274C26.0008 7.51705 26.0776 3.27908 25.9692 1.29151C25.9321 0.610488 25.3891 0.0675386 24.7081 0.0304178C24.3844 0.012746 24.0009 0 23.5686 0C21.3461 0 17.8295 0.336627 14.4721 2.07318C11.804 3.45326 8.30535 6.49204 6.24121 10.4855C6.26559 10.5046 6.2894 10.5248 6.31185 10.5472L15.4524 19.6878C15.4749 19.7103 15.495 19.734 15.5141 19.7584C19.5076 17.6942 22.5464 14.1956 23.9264 11.5274V11.5274ZM15.117 5.49653C16.6018 4.01164 19.018 4.01149 20.503 5.49653C21.2224 6.21584 21.6185 7.1723 21.6185 8.18959C21.6185 9.20689 21.2224 10.1633 20.503 10.8827C19.7607 11.625 18.7852 11.9963 17.81 11.9964C16.8346 11.9964 15.8595 11.6252 15.117 10.8827C14.3976 10.1633 14.0014 9.20689 14.0014 8.18959C14.0014 7.1723 14.3976 6.21584 15.117 5.49653V5.49653Z" fill="#FEE233"/>
<path d="M16.1947 9.80548C17.0856 10.6964 18.5355 10.6965 19.4264 9.80548C19.858 9.37384 20.0957 8.80001 20.0957 8.18962C20.0957 7.57923 19.858 7.0054 19.4264 6.57381C18.981 6.12831 18.3958 5.90558 17.8106 5.90558C17.2254 5.90558 16.6402 6.12831 16.1947 6.57381C15.7631 7.0054 15.5254 7.57923 15.5254 8.18962C15.5254 8.80001 15.7631 9.37389 16.1947 9.80548Z" fill="#FEE233"/>
<path d="M0.777859 21.4264C0.972808 21.4264 1.16776 21.3521 1.31645 21.2033L3.80336 18.7163C4.10084 18.4189 4.10084 17.9366 3.80336 17.6391C3.50593 17.3416 3.02361 17.3416 2.72614 17.6391L0.239221 20.126C-0.058256 20.4235 -0.058256 20.9058 0.239221 21.2033C0.38796 21.352 0.582909 21.4264 0.777859 21.4264Z" fill="#FEE233"/>
<path d="M6.08214 19.9182C5.78471 19.6208 5.30239 19.6208 5.00491 19.9182L0.223596 24.6996C-0.073881 24.997 -0.073881 25.4793 0.223596 25.7768C0.372335 25.9255 0.567284 25.9999 0.762234 25.9999C0.957183 25.9999 1.15213 25.9255 1.30082 25.7767L6.08209 20.9955C6.37961 20.698 6.37961 20.2157 6.08214 19.9182V19.9182Z" fill="#FEE233"/>
<path d="M7.28419 22.1974L4.79733 24.6843C4.49985 24.9818 4.49985 25.4641 4.79733 25.7616C4.94607 25.9103 5.14101 25.9847 5.33591 25.9847C5.53081 25.9847 5.72581 25.9103 5.8745 25.7616L8.36141 23.2746C8.65889 22.9772 8.65889 22.4949 8.36141 22.1974C8.06399 21.8999 7.58167 21.8999 7.28419 22.1974Z" fill="#FEE233"/>
</svg>
