<svg width="30" height="30" viewBox="0 0 30 30" fill="none" xmlns="http://www.w3.org/2000/svg">
<path d="M16.2137 16.5963C16.1222 16.7808 15.9995 16.9538 15.8457 17.1074C15.0518 17.9015 13.7436 17.868 12.9932 17.0068C12.132 16.2564 12.0985 14.9482 12.8924 14.154C13.0462 14.0005 13.2192 13.8778 13.4037 13.7861C13.8116 13.5834 14.1952 13.3359 14.5362 13.0365L11 9.50034L14.5362 5.96415C14.8358 6.3054 15.0833 6.68901 15.286 7.09706C15.3774 7.28139 15.5002 7.45439 15.6539 7.60815C16.4481 8.4023 17.7565 8.36856 18.5069 7.50693C19.3686 6.75649 19.4023 5.44785 18.6082 4.6537C18.4546 4.50017 18.2816 4.37744 18.0971 4.28573C17.6892 4.08306 17.3056 3.83555 16.9644 3.53619L20.5006 0L24.0368 3.53619C24.3361 3.19493 24.5836 2.81133 24.7863 2.4035C24.878 2.21895 25.0005 2.04617 25.1543 1.89241C25.9484 1.09827 27.2566 1.13201 28.007 1.99296C28.8682 2.7434 28.9017 4.05158 28.1076 4.84573C27.9538 4.99926 27.781 5.122 27.5965 5.21371C27.1887 5.41638 26.8051 5.66388 26.4638 5.96324L30 9.49943L26.4638 13.0356C26.1644 12.6944 25.9169 12.3108 25.7143 11.9029C25.6226 11.7184 25.5001 11.5456 25.3463 11.3918C24.5521 10.5977 23.2435 10.6314 22.4931 11.4931C21.6314 12.2435 21.5977 13.5519 22.3918 14.3461C22.5456 14.4998 22.7186 14.6226 22.9029 14.714C23.311 14.9167 23.6946 15.1644 24.0356 15.4638L20.4994 19L16.9632 15.4638C16.6639 15.8048 16.4164 16.1884 16.2137 16.5963V16.5963Z" fill="#FEE233"/>
<path d="M3.53619 16.9633C3.19493 16.6639 2.81133 16.4164 2.4035 16.2138C2.21895 16.1221 2.04617 15.9995 1.89241 15.8458C1.09827 15.0519 1.13201 13.7437 1.99296 12.993C2.7434 12.132 4.05158 12.0985 4.84573 12.8924C4.99926 13.0462 5.122 13.2192 5.21371 13.4035C5.41638 13.8116 5.66388 14.1952 5.96324 14.5362L9.49943 11L11.5997 13.1003C11.5284 13.1615 11.4591 13.2255 11.3923 13.2923C10.6856 13.9993 10.2997 14.9778 10.3339 15.9771C10.3667 16.938 10.787 17.8542 11.4915 18.5086C12.1459 19.2129 13.0621 19.6332 14.0229 19.6662C15.0222 19.7004 16.0007 19.3145 16.7077 18.6078C16.7745 18.5408 16.8386 18.4717 16.8995 18.4001L19 20.5007L15.4638 24.0369C15.8048 24.3363 16.1884 24.5838 16.5963 24.7865C16.7808 24.8779 16.9538 25.0007 17.1076 25.1544C17.9015 25.9484 17.868 27.2566 17.0068 28.007C16.2564 28.8682 14.9482 28.9017 14.1543 28.1078C14.0005 27.954 13.8778 27.781 13.7863 27.5965C13.5836 27.1886 13.3361 26.805 13.0368 26.4638L9.50057 30L5.96438 26.4638C6.3054 26.1644 6.68901 25.9169 7.09706 25.7142C7.28139 25.6227 7.45439 25.5 7.60815 25.3462C8.4023 24.5521 8.36856 23.2437 7.50693 22.4932C6.75649 21.6316 5.44785 21.5978 4.6537 22.392C4.50017 22.5455 4.37744 22.7185 4.28573 22.9031C4.08306 23.3109 3.83555 23.6945 3.53619 24.0358L0 20.4995L3.53619 16.9633Z" fill="#FEE233"/>
</svg>
