<svg width="1243" height="150" viewBox="0 0 1243 150" fill="none" xmlns="http://www.w3.org/2000/svg">
<path fill-rule="evenodd" clip-rule="evenodd" d="M939.429 108.882C939.255 109.1 938.463 110.079 937.662 111.059C936.662 109.142 937.14 107.371 936.549 105.805C935.696 103.623 931.684 104.651 929.909 103.308C928.673 102.39 926.541 101.846 926.716 99.905C926.228 99.3488 928.821 99.5362 927.882 98.4601C925.828 98.2304 923.731 97.9644 921.677 98.7866C923.757 99.9352 924.053 101.259 922.739 102.825C920.268 100.661 916.552 102.462 913.463 101.301C913.463 99.3125 913.463 97.2571 913.463 94.7604C910.156 95.0264 907.424 94.7543 906.736 92.0581C906.432 90.8793 904.378 91.2783 903.203 91.4294C902.281 91.5503 901.55 92.2939 900.689 92.7412C898.835 93.7448 896.834 94.5186 894.467 94.8208C891.543 91.8163 889.568 95.5584 887.036 95.3226C889.002 98.2365 889.185 101.144 887.993 109.704C885.391 110.297 883.485 107.256 880.692 108.949C880.361 109.614 880.031 110.285 879.717 110.907C876.184 108.272 872.156 112.794 868.501 110.212C868.501 103.756 868.501 97.0878 868.501 90.2204C864.942 90.2204 861.679 90.2022 858.389 90.2204C855.205 90.2445 852.011 90.305 847.695 90.3594C850.932 91.6471 850.619 93.0617 850.462 94.3614C849.792 100.28 852.35 106.404 848.173 112.231C847.068 111.222 845.302 110.823 845.485 109.366C845.937 105.878 844.632 102.251 846.503 98.6536C845.572 98.2969 843.91 97.0939 842.509 97.2329C836.713 97.7891 831.388 96.175 825.784 95.8546C820.241 95.5342 815.368 97.5473 809.877 97.2027C805.169 96.9004 804.204 97.8133 804.082 100.999C804.021 102.535 804.212 104.088 804.029 105.606C803.847 107.014 804.865 108.592 803.055 109.862C799.618 109.378 799.026 107.867 799.043 105.708C799.148 91.901 799.096 78.0814 799.096 64.2678C799.096 62.5932 799.096 60.9187 799.096 59.1232C786.078 59.1232 773.66 59.226 761.269 59.0265C759.276 58.9902 757.797 60.6708 755.761 59.5343C755.552 59.4134 755.195 59.1474 755.204 59.1414C755.944 58.5791 753.516 59.3832 754.342 59.4981C754.342 63.3429 754.342 67.1635 754.342 70.9721C754.342 81.3398 754.325 91.7015 754.369 102.063C754.369 103.768 754.508 105.436 751.645 106.21C750.374 105.013 751.497 103.587 750.957 102.377C750.662 101.725 749.504 101.265 748.747 100.715C746.398 102.607 743.169 100.564 741.49 101.205C739.114 102.093 737.374 100.552 736.895 100.842C735.164 101.9 732.814 102.287 731.814 101.434C729.603 99.5483 728.594 102.855 727.158 101.713C725.766 100.594 724.348 101.694 723.573 101.555C720.823 101.06 718.422 100.54 715.741 101.688C714.967 102.015 714.636 100.497 713.357 100.836C712.531 101.592 711.147 101.985 711.234 103.169C711.373 104.886 711.277 106.609 711.269 108.344C711.251 110.182 709.877 110.037 707.649 109.215C709.459 105.721 705.552 102.625 706.161 98.9438C706.779 95.1533 706.3 91.2843 706.3 87.4456C706.3 83.7942 706.3 80.1489 706.3 76.5035C706.3 72.6648 706.152 68.826 706.335 64.9932C706.509 61.5595 705.404 58.0472 707.379 54.692C706.474 54.3958 705.186 54.7343 704.299 53.2351C704.299 51.4215 704.299 48.9913 704.299 46.2769C703.333 46.8694 702.75 47.22 701.766 47.8124C700.635 43.8951 701.175 40.0261 700.035 36.2356C698.956 32.6024 697.642 29.217 695.118 24.7435C694.231 33.2432 690.724 40.2377 691.168 47.6613C689.697 47.4074 689.523 46.0412 687.861 47.1595C687.861 49.4265 687.861 51.8749 687.861 54.1721C686.712 54.7162 685.364 54.2991 684.763 55.1635C684.763 58.2043 684.763 61.2754 684.763 64.3403C684.763 67.224 684.763 70.1015 684.763 72.9791C684.763 76.0441 684.737 79.1212 684.772 82.1861C684.807 84.8521 685.825 87.6995 685.346 90.1115C684.72 93.1463 685.372 96.1146 684.755 99.0828C684.476 100.352 685.564 101.749 683.971 102.891C682.17 101.138 679.133 101.259 677.297 101.906C672.015 103.798 666.846 102.456 661.86 102.801C661.19 101.483 662.191 100.461 660.755 99.4455C657.762 99.4455 653.95 100.177 651.348 99.2581C647.833 97.9946 644.526 98.4118 641.141 98.3332C638.235 98.2667 636.817 99.3669 636.721 101.404C636.599 103.816 636.695 106.246 636.695 109.741C634.363 107.105 635.067 105.364 635.067 103.72C634.998 86.2667 635.041 68.7957 635.007 51.3369C634.998 47.8487 636.025 44.1671 631.778 41.3379C632.857 38.4664 628.028 37.4508 627.68 35.1354C618.63 35.1354 609.589 35.1354 600.643 35.1354C599.651 36.2477 600.078 37.3903 599.573 38.4603C597.885 42.015 594.056 45.2129 595.248 49.3177C591.976 50.8472 597.197 52.558 595.083 54.0633C592.69 55.762 595.657 57.2129 595.457 58.9358C594.883 63.6995 595.57 68.5298 595.161 73.3056C594.752 77.9605 596.936 82.7604 593.725 87.2642C596.641 88.8481 593.908 90.7947 594.474 92.3725C594.952 93.6904 595.466 94.6213 594.57 95.9634C593.282 97.8979 590.445 96.5679 589.296 97.2571C587.373 100.715 586.364 103.913 587.051 107.099C585.441 107.661 584.484 107.613 583.388 106.694C583.388 95.6793 583.388 84.4048 583.388 73.2088C574.521 71.504 565.958 70.7484 557.143 73.2572C557.143 80.2033 557.143 87.0828 557.143 93.9685C557.143 95.111 557.778 96.9428 557.021 97.2934C555.116 98.1579 556.908 101.241 552.862 100.51C552.357 97.6561 551.818 68.8864 552.157 65.9665C552.575 62.4119 551.209 58.9781 550.713 55.496C549.938 49.9827 550.034 44.3545 550.634 38.823C551.252 33.1102 547.928 27.6513 548.946 22.0352C549.869 16.8967 546.318 12.8463 543.168 8.70525C542.237 7.47805 541.062 5.89418 539.644 5.19897C537.042 3.92341 538.304 1.29974 535.276 0C533.144 2.75062 531.682 5.45287 529.245 7.61105C524.66 11.6554 522.075 15.9959 522.275 21.1949C522.354 23.4256 523.624 25.9828 521.614 27.8629C518.551 30.7163 519.09 33.8115 519.047 36.9309C518.995 40.0019 518.212 43.218 519.265 46.1016C520.326 49.0336 518.647 51.621 518.882 54.4079C519.386 60.3383 519.038 66.299 519.038 72.2476C519.038 77.8093 519.221 83.3771 518.943 88.9388C518.838 90.9035 521.544 93.0012 520.457 94.1075C517.742 96.8823 519.508 99.6571 519.125 102.384C518.742 105.183 519.038 108.03 519.038 110.865C512.964 110.521 512.529 110.297 512.425 107.274C512.338 104.584 512.451 101.894 512.399 99.2098C512.32 95.4012 511.65 94.9901 506.464 94.8269C501.382 94.6697 496.396 94.9538 491.663 96.1266C490.662 94.7302 490.357 93.3639 488.556 92.6748C480.603 95.9936 480.603 96.0178 472.606 95.9755C471.039 95.9634 469.334 96.3624 467.889 95.6007C467.689 94.6758 467.968 93.3881 467.211 92.9287C463.199 90.4864 455.89 92.0098 454.454 95.6007C454.036 96.6768 454.393 97.8858 454.393 99.0405C454.393 102.245 454.393 105.442 454.393 108.804C450.764 108.471 449.346 107.468 449.398 105.412C449.476 102.341 449.416 99.2642 449.416 96.2052C449.416 82.8088 449.416 69.4063 449.416 55.7197C443.707 55.5505 437.955 56.4028 433.5 53.3681C431.873 55.9374 431.873 55.9373 428.758 54.5771C427.609 55.3207 426.46 56.0582 425.564 56.6386C422.962 55.3812 420.508 55.3993 417.933 56.1308C417.933 62.2124 417.933 68.161 417.933 74.1096C417.933 79.8708 417.471 85.6501 418.054 91.375C418.655 97.2692 415.853 102.909 416.244 108.755C416.262 109.07 415.827 109.384 415.54 109.795C414.826 109.741 414.086 109.686 413.329 109.638C411.676 103.919 415.296 97.8979 411.119 93.1221C409.422 92.3725 409.605 94.313 408.065 93.1886C406.907 92.3302 406.281 92.6506 406.359 93.6964C406.42 94.6697 405.272 94.9841 404.532 95.4738C403.209 96.3624 401.46 96.3019 400.12 95.637C398.937 95.0566 398.075 94.3916 396.378 95.3589C396.378 97.6924 396.404 100.159 396.378 102.631C396.352 104.481 394.934 104.282 393.254 103.647C392.619 101.12 393.724 98.5145 392.515 95.9634C390.696 96.5317 392.28 98.17 389.878 98.309C387.05 97.1604 383.761 96.7191 379.688 97.4808C379.688 101.126 379.688 104.862 379.688 108.477C377.556 108.816 376.443 108.659 376.486 107.292C376.591 103.387 377.539 99.506 377.852 95.6672C378.731 85.1483 378.2 74.5751 378.131 64.0139C378.113 61.1847 377.339 60.4895 372.927 60.3928C370.369 60.3383 369.951 59.4013 369.351 58.2043C367.306 58.7605 365.713 59.7278 362.964 58.6456C361.275 57.9746 358.386 59.4134 355.785 59.1897C353.331 58.9781 350.807 59.2562 348.336 59.1111C345.778 58.966 342.845 59.9333 340.783 58.0472C338.973 60.1449 338.251 62.3454 338.303 64.8542C338.494 75.4033 338.381 85.9584 338.381 96.5075C338.381 99.7236 338.381 102.934 338.381 106.247C337.102 106.247 336.354 106.247 335.692 106.247C334.065 104.469 336.04 102.414 334.1 100.237C330.376 101.368 326.347 102.13 321.874 101.658C323.849 104.796 324.885 107.456 320.917 109.813C319.594 108.665 320.194 107.48 320.186 106.398C320.116 100.062 320.134 93.7327 320.168 87.3972C320.177 85.91 320.586 84.3987 317.375 84.1811C316.896 84.1509 316.836 82.7121 316.131 82.3675C315.2 81.902 312.972 82.2647 313.59 80.8864C314.643 78.5287 310.535 79.0668 310.309 77.8819C309.761 75.0587 306.898 76.5579 305.21 76.4914C300.25 76.2919 295.273 76.4068 290.304 76.437C289.834 76.4431 289.364 76.697 288.703 76.8904C289.608 80.1186 284.987 77.8758 283.821 79.2058C283.717 80.1126 283.612 81.0254 283.517 81.8536C281.289 82.4461 277.991 81.5695 278.165 84.2839C274.049 84.3745 275.563 86.5448 275.45 87.9957C275.276 90.0994 275.407 92.2093 275.407 94.2163C274.293 95.51 272.544 95.9453 270.751 96.3141C269.455 100.679 272.022 105.346 268.436 110.375C266.531 108.326 264.103 108.133 262.867 108.906C260.587 110.315 257.107 110.321 256.08 109.662C252.094 107.099 247.439 111.192 243.854 108.653C240.53 110.478 236.614 109.571 232.951 109.825C230.592 109.989 228.991 110.835 229 112.679C229.009 116.904 229 121.124 229 125.338C229 133.16 229 140.971 229 148.757C264.669 149.731 940.891 149.313 948 148.376C948 135.149 948 121.976 948 107.969C945.233 111.609 943.101 108.217 939.429 108.882Z" fill="#101020"/>
<rect y="119" width="1243" height="30" fill="#101020"/>
<g clip-path="url(#clip0)">
<path fill-rule="evenodd" clip-rule="evenodd" d="M1466.02 128.524C1465.39 128.318 1465.54 127.971 1465.54 127.662C1465.53 125.813 1465.55 123.954 1465.52 122.106C1465.52 121.804 1465.7 121.481 1465.33 121.162C1464.55 121.162 1463.75 121.162 1462.89 121.162C1462.89 114.182 1462.89 107.249 1462.89 100.316C1462.89 100.284 1462.85 100.245 1462.82 100.217C1462.78 100.185 1462.73 100.163 1462.6 100.092C1460.5 100.092 1458.3 100.092 1456.05 100.092C1456.05 97.2574 1456.05 94.4721 1456.05 91.7045C1455.43 91.5022 1454.75 91.7542 1454.16 91.5129C1454.26 91.0871 1454 90.6365 1454.51 90.2604C1454 90.0901 1453.43 90.3561 1453.03 90.051C1453.18 89.2846 1453.01 88.5466 1452.48 87.8298C1451.84 87.9434 1451.46 87.6737 1451.07 87.4218C1448.95 86.0699 1446.72 84.789 1444.28 83.6678C1443.92 83.5046 1444.15 83.2029 1443.94 83.1497C1440.55 83.1497 1437.36 83.1497 1434.18 83.1497C1434.14 83.3875 1434.12 83.5755 1434.09 83.7671C1433.74 83.792 1433.45 83.8168 1433.15 83.8381C1433.1 83.8665 1433.06 83.8984 1433.02 83.9232C1430.98 85.1829 1428.99 86.4744 1426.79 87.624C1426.34 87.8547 1425.82 87.7163 1425.44 87.9434C1425.44 88.4508 1425.46 88.9617 1425.44 89.4691C1425.42 90.0616 1425.27 90.1255 1423.9 90.1468C1423.9 88.1172 1423.9 86.0876 1423.9 84.0439C1420.37 84.0439 1416.97 84.0474 1413.57 84.0403C1413.05 84.0403 1412.56 84.0297 1412.14 84.5158C1412.14 99.0564 1412.14 113.757 1412.14 128.453C1412.14 128.478 1412.05 128.503 1412 128.528C1411.71 128.489 1411.38 128.613 1411.05 128.393C1411.05 123.681 1411.05 118.919 1411.05 114.076C1410.01 114.076 1409.03 114.076 1408.05 114.076C1408.05 112.891 1408.04 111.787 1408.06 110.687C1408.06 110.638 1408.23 110.595 1408.32 110.549C1408.68 110.453 1408.77 110.758 1409.07 110.741C1409.25 110.645 1409.24 110.489 1409.15 110.421C1408.67 110.081 1408.1 109.793 1407.82 109.343C1407.65 109.084 1407.1 109.027 1406.86 109.144C1406.21 109.477 1405.63 108.92 1405.08 109.133C1404.37 109.403 1403.81 109.059 1403.11 109.08C1403.11 105.926 1403.11 102.825 1403.11 99.7163C1399.16 99.7163 1395.3 99.7163 1391.41 99.7163C1391.41 100.518 1391.41 101.263 1391.41 102.012C1391.41 102.761 1391.39 103.509 1391.42 104.258C1391.46 105.003 1391.59 105.77 1391.55 106.486C1391.5 107.207 1391.55 107.948 1391.41 108.672C1391.37 108.896 1391.56 109.144 1391.25 109.343C1390.67 109.449 1390.34 109.08 1389.71 109.094C1387.14 109.162 1384.55 109.144 1381.97 109.101C1381.5 109.094 1381.13 109.456 1380.54 109.151C1380.19 108.967 1379.46 109.208 1378.94 109.03C1378.94 108.502 1378.94 107.991 1378.94 107.48C1378.94 107.008 1378.94 106.532 1378.94 106.061C1378.94 105.546 1378.94 105.035 1378.94 104.521C1378.94 104.049 1378.94 103.573 1378.94 103.101C1378.94 102.587 1378.94 102.076 1378.94 101.565C1378.94 101.09 1378.67 100.522 1379 100.167C1379.5 99.6347 1378.78 99.2515 1378.93 98.8045C1378.99 98.6199 1378.8 98.4071 1379.1 98.2545C1379.31 98.1445 1379.43 97.9706 1379.24 97.8606C1378.68 97.5271 1378.95 97.1226 1378.94 96.7536C1378.91 94.4259 1378.93 92.0983 1378.93 89.7743C1378.93 89.4656 1378.89 89.1569 1378.85 88.8446C1378.83 88.7559 1378.5 88.7453 1378.68 88.5572C1378.86 88.4508 1379.09 88.3159 1379.4 88.1385C1379.1 87.915 1379.22 87.6027 1379.08 87.365C1378.87 87.0137 1378.94 86.6802 1378.94 86.3396C1378.92 83.0681 1378.93 79.7967 1378.93 76.5217C1378.93 76.1207 1378.81 75.7091 1379.21 75.3437C1378.56 75.0137 1379.23 74.5098 1378.75 74.0983C1376.46 74.1373 1374.09 74.0486 1371.67 74.1586C1371.67 75.1308 1371.67 76.0285 1371.67 76.9652C1370.8 76.9652 1370 76.9652 1369.26 76.9652C1368.66 77.3413 1368.13 77.6748 1367.53 78.051C1367.53 78.5122 1367.53 79.0125 1367.53 79.5554C1366.66 79.5554 1365.86 79.5554 1365.1 79.5554C1364.49 79.9954 1363.73 80.2934 1363.53 80.8789C1363.87 81.0243 1363.76 81.2976 1363.82 81.5601C1363.93 82.0462 1363.6 82.4401 1363.28 82.8339C1360.33 82.8339 1357.39 82.8339 1354.37 82.8339C1354.37 82.0675 1354.37 81.3295 1354.37 80.7724C1353.62 80.3005 1353.06 79.9422 1352.39 79.527C1351.79 79.527 1351.04 79.527 1350.23 79.527C1350.23 79.0054 1350.23 78.5016 1350.23 78.1468C1349.51 77.6926 1348.93 77.3342 1348.22 76.8907C1347.6 76.8907 1346.81 76.8907 1345.96 76.8907C1345.96 75.9327 1345.96 75.0385 1345.96 74.1089C1345.01 74.1089 1344.14 74.1089 1343.26 74.1089C1342.44 74.1089 1341.53 73.974 1340.82 74.1444C1339.99 74.336 1339.26 73.8641 1338.46 74.2189C1338.46 74.5808 1338.46 74.9676 1338.46 75.3543C1338.46 76.1456 1338.46 76.9333 1338.46 77.721C1338.46 78.5122 1338.46 79.2999 1338.46 80.0876C1338.46 80.9144 1338.46 81.7446 1338.46 82.5714C1338.46 83.3626 1338.46 84.1468 1338.46 84.938C1338.46 85.7293 1338.46 86.517 1338.46 87.3047C1338.46 88.096 1338.46 88.8837 1338.46 89.6714C1338.46 90.4981 1338.46 91.3248 1338.46 92.1551C1338.46 92.9428 1338.46 93.7305 1338.46 94.5218C1338.46 95.313 1338.46 96.1007 1338.46 96.8884C1338.46 97.6761 1338.46 98.4674 1338.46 99.2551C1338.46 100.085 1338.46 100.912 1338.46 101.739C1338.46 102.527 1338.46 103.318 1338.46 104.105C1338.46 104.893 1338.46 105.681 1338.46 106.472C1338.46 107.263 1338.46 108.051 1338.46 108.839C1338.46 109.666 1338.41 110.499 1338.47 111.323C1338.53 112.093 1338.49 112.87 1338.58 113.64C1338.66 114.353 1338.47 115.116 1338.46 115.857C1338.45 119.21 1338.46 122.56 1338.45 125.913C1338.45 126.083 1338.61 126.314 1338.17 126.41C1337.39 126.324 1337.3 125.987 1337.31 125.554C1337.34 124.188 1337.33 122.819 1337.33 121.414C1336.48 121.414 1335.81 121.414 1335.05 121.414C1335.05 120.871 1335.05 120.363 1335.05 119.86C1335.05 119.306 1335.05 118.753 1335.05 118.203C1335.05 117.688 1335.21 117.149 1335 116.67C1334.8 116.191 1335.07 115.768 1335.06 115.321C1335.03 114.771 1335.05 114.214 1335.05 113.661C1335.05 113.146 1335.05 112.639 1335.05 112.124C1335.05 111.61 1335.05 111.099 1335.05 110.585C1335.05 110.07 1335.05 109.559 1335.05 109.045C1335.05 108.495 1335.05 107.938 1335.05 107.388C1335.05 106.873 1335.05 106.362 1335.05 105.851C1335.05 105.34 1335.05 104.826 1335.05 104.311C1335.05 103.758 1335.05 103.208 1335.05 102.658C1335.05 102.15 1335.05 101.647 1335.05 101.352C1334.6 100.6 1333.67 101.019 1333.09 100.706C1333.09 98.1693 1333.09 95.6217 1333.09 93.0599C1332.84 93.0528 1332.66 93.0422 1332.48 93.0386C1332.24 93.0351 1332 93.0386 1331.77 93.0386C1331.63 92.2899 1331.63 92.2935 1330.34 91.85C1330.24 91.818 1330.15 91.7329 1330.15 91.6725C1330.16 91.1048 1329.28 91.5696 1329.03 91.2751C1329.01 91.0232 1328.99 90.7571 1328.95 90.381C1328.57 90.5229 1328.2 90.3136 1327.82 90.5903C1327.82 90.8103 1327.82 91.0729 1327.82 91.3284C1327.64 91.3532 1327.5 91.4029 1327.41 91.378C1325.8 90.9735 1324.11 91.2006 1322.46 91.151C1321.65 91.1261 1321.24 91.4738 1320.89 91.8571C1320.46 91.8961 1320.02 91.7825 1319.56 91.9599C1319.56 92.2828 1319.56 92.627 1319.56 93.0563C1318.9 93.0563 1318.3 93.0563 1317.64 93.0563C1317.64 95.9304 1317.64 98.7158 1317.64 101.508C1315.21 101.508 1312.85 101.508 1310.43 101.508C1310.43 101.267 1310.43 101.079 1310.43 100.845C1308.13 100.873 1305.9 100.816 1303.67 100.88C1303.67 103.896 1303.67 106.813 1303.67 109.726C1303.49 109.839 1303.31 109.949 1303.15 110.049C1302.27 110.13 1301.44 110.113 1300.64 109.729C1300.64 108.864 1300.64 107.969 1300.64 106.994C1298.97 106.994 1297.37 106.994 1295.7 106.994C1295.7 105.617 1295.7 104.329 1295.7 103.016C1295.15 102.917 1294.75 103.023 1294.2 103.24C1294.2 99.099 1294.2 95.0185 1294.2 90.9416C1290.88 90.9416 1287.68 90.9416 1284.35 90.9416C1284.35 97.6477 1284.35 104.329 1284.35 110.971C1282.92 111.17 1281.5 110.773 1280.21 111.301C1280.21 115.79 1280.21 120.236 1280.21 124.685C1279.85 124.841 1279.4 124.635 1279.07 124.884C1279.46 125.384 1278.49 125.107 1278.28 125.437C1278.28 126.388 1278.28 127.439 1278.28 128.503C1277.74 128.528 1277.25 128.624 1276.82 128.425C1276.82 112.639 1276.82 96.8671 1276.82 81.2621C1276.47 80.595 1275.83 80.2366 1275.26 79.8925C1275.6 79.3673 1275.38 79.0445 1274.53 78.6967C1274.53 77.2065 1274.53 75.7091 1274.53 74.226C1273.26 73.307 1273.14 72.9486 1273.78 72.1112C1273.29 71.76 1272.99 71.3732 1273.03 70.8906C1273.06 70.4223 1273.03 69.9504 1273.03 69.5033C1272.64 69.2585 1272.28 69.0349 1271.87 68.7724C1271.96 68.3146 1272.11 67.6086 1271.48 67.4311C1270.66 67.2041 1270.6 66.5477 1269.64 66.466C1269.6 65.6819 1269.69 64.8835 1269.3 64.0994C1269.16 63.8226 1268.82 63.5991 1268.85 63.2585C1268.92 62.1975 1268.93 61.1295 1268.85 60.0686C1268.82 59.7457 1269.58 59.5647 1269.22 59.3554C1268.54 58.9616 1269.15 58.4435 1268.69 58C1268.32 58.2945 1268.7 58.6671 1268.43 58.8764C1267.79 59.3803 1267.94 60.0154 1268.18 60.4376C1268.7 61.3318 1268.32 62.2082 1268.48 63.0775C1268.51 63.1839 1268.49 63.3649 1268.39 63.4004C1267.59 63.6807 1267.76 64.1916 1267.74 64.6139C1266.98 64.7451 1266.72 64.3229 1266.24 64.3087C1266.16 64.0816 1266.36 63.8652 1266.04 63.7162C1265.59 63.9645 1266.03 64.3158 1265.77 64.5926C1265.38 64.6706 1264.96 64.7523 1264.71 65.029C1264.71 65.359 1264.64 65.7174 1264.72 66.0651C1264.83 66.5086 1264.02 66.6541 1264 66.9379C1263.98 67.3637 1263 67.2041 1263.12 67.6547C1263.18 67.8427 1262.29 67.7079 1262.55 67.8782C1263.03 68.1834 1262.4 68.2508 1262.42 68.4353C1262.44 68.6588 1262.54 68.9001 1262.32 69.1165C1262.15 69.1449 1261.98 69.1698 1261.81 69.2017C1261.76 69.2123 1261.72 69.2585 1261.68 69.2869C1261.68 69.993 1261.68 70.7026 1261.68 71.5506C1261.5 71.6251 1261.17 71.7564 1260.9 71.8629C1260.9 72.5548 1260.9 73.1792 1260.9 73.9315C1260.69 74.0095 1260.37 74.1302 1260.12 74.2189C1260.12 75.8227 1260.12 77.3129 1260.12 78.6506C1259.42 79.0161 1259.04 79.339 1259.03 79.8144C1259.03 79.9634 1259.17 80.1763 1258.89 80.2437C1257.69 80.5347 1257.91 81.1734 1257.91 81.7482C1257.9 86.0877 1257.91 90.4236 1257.9 94.763C1257.9 95.0611 1258.07 95.384 1257.79 95.6181C1256.02 95.6181 1254.34 95.6181 1252.6 95.6181C1252.6 92.2367 1252.6 88.8978 1252.6 85.4773C1251.68 85.5199 1250.81 85.3709 1250.03 85.6796C1249.13 85.0197 1249.91 84.2568 1249.43 83.5968C1248.94 83.5968 1248.44 83.6252 1247.95 83.5933C1246.41 83.4904 1245.16 83.7849 1243.91 84.381C1242.62 84.9948 1241.27 85.7044 1239.36 85.4738C1239.36 91.7577 1239.36 97.9387 1239.36 104.12C1238.65 104.176 1238.04 104.311 1237.43 104.563C1237.43 105.117 1237.43 105.699 1237.43 106.273C1235.56 106.327 1235.56 106.327 1234.7 106.075C1234.44 105.997 1234.2 105.894 1233.93 105.816C1233.47 105.681 1233.3 106.27 1232.85 105.912C1232.67 105.77 1232.6 105.99 1232.46 106.025C1231.98 106.153 1231.51 106.284 1231.05 106.408C1231.05 108.495 1231.05 110.545 1231.05 112.589C1230.86 112.706 1230.68 112.813 1230.44 112.969C1229.58 112.969 1228.65 112.969 1227.66 112.969C1227.66 114.459 1227.66 115.907 1227.66 117.294C1227 117.904 1226.1 117.592 1225.35 117.663C1224.76 117.716 1224.23 117.667 1223.81 117.227C1223.81 116.262 1223.81 115.208 1223.81 114.111C1220.04 114.111 1216.34 114.111 1212.66 114.111C1212.3 112.344 1212.01 110.62 1212.14 108.871C1212.17 108.558 1212.18 108.239 1212.13 107.927C1212.11 107.803 1211.93 107.689 1211.84 107.597C1212.03 107.302 1212.37 107.121 1212.34 106.742C1212.32 106.373 1212.06 106.046 1212.13 105.67C1212.21 105.202 1212.15 104.723 1212.15 104.254C1212.15 97.9458 1212.15 91.6335 1212.14 85.3283C1212.14 84.9877 1212.29 84.6329 1211.96 84.2674C1205.37 84.2674 1198.77 84.2674 1192.11 84.2674C1192.11 83.171 1192.11 82.1172 1192.11 81.074C1191.53 80.8647 1190.77 81.1769 1190.36 80.7369C1190.27 80.6518 1190.19 80.6199 1190.43 80.5205C1190.79 80.5879 1191.06 80.4815 1190.97 80.1586C1190.83 79.9528 1190.34 80.1373 1190.19 79.8605C1190.36 79.4844 1190.98 79.0906 1190.46 78.6648C1189.11 78.6648 1187.8 78.6648 1186.53 78.6648C1186.15 79.1615 1186.72 79.5518 1186.82 79.8996C1186.55 80.1302 1186.01 79.9315 1186.05 80.2686C1185.9 80.666 1187.14 80.3999 1186.8 80.8931C1186.41 81.1379 1185.84 80.8789 1185.27 81.0953C1185.27 87.6489 1185.27 94.2521 1185.27 100.848C1184.71 100.866 1184.29 100.88 1183.73 100.901C1183.73 103.357 1183.73 105.78 1183.73 108.165C1180.78 108.165 1177.96 108.165 1175.07 108.165C1175.07 106.284 1175.07 104.443 1175.07 102.573C1169.75 102.573 1164.5 102.573 1159.17 102.573C1159.17 107.061 1159.17 111.507 1159.17 115.96C1158.51 115.96 1157.92 115.96 1157.31 115.96C1157.31 111.06 1157.31 106.21 1157.31 101.363C1157.31 101.086 1157.26 100.806 1157.32 100.536C1157.39 100.238 1157.03 100.124 1156.73 99.915C1154.73 99.915 1152.67 99.915 1150.47 99.915C1150.47 94.0605 1150.47 88.245 1150.47 82.4472C1144.49 82.4472 1138.65 82.4472 1132.85 82.4472C1132.55 82.6672 1132.93 82.9546 1132.62 83.0859C1131.86 83.0859 1131.19 83.0859 1130.56 83.0859C1130.31 82.8588 1130.66 82.5678 1130.25 82.4188C1127.97 82.4188 1125.71 82.4188 1123.26 82.4188C1123.26 82.8943 1123.26 83.2881 1123.26 83.6784C1123.26 84.1929 1123.26 84.7038 1123.26 85.2148C1123.26 85.7257 1123.26 86.2402 1123.26 86.7547C1123.26 87.2656 1123.26 87.7802 1123.26 88.2947C1123.26 88.8091 1123.26 89.3201 1123.26 89.831C1123.26 90.342 1123.26 90.8565 1123.26 91.3674C1123.26 91.8819 1123.26 92.3928 1123.26 92.9073C1123.26 93.4218 1123.26 93.9327 1123.26 94.4472C1123.26 94.9617 1123.26 95.4727 1123.26 95.9836C1123.26 96.4981 1123.26 97.0091 1123.26 97.5235C1123.26 98.0345 1123.26 98.549 1123.26 99.0599C1123.26 99.6099 1123.26 100.163 1123.26 100.717C1123.26 101.228 1123.26 101.742 1123.26 102.253C1123.26 102.768 1123.26 103.282 1123.26 103.793C1123.26 104.308 1123.26 104.819 1123.26 105.333C1123.26 105.844 1123.26 106.359 1123.26 106.87C1123.26 107.384 1123.26 107.895 1123.26 108.409C1123.26 108.92 1123.26 109.431 1123.26 109.946C1123.26 110.46 1123.22 110.975 1123.28 111.486C1123.32 111.983 1123.3 112.472 1123.4 112.972C1123.49 113.398 1123.26 113.902 1123.26 114.374C1123.26 118.753 1123.26 123.127 1123.26 127.506C1123.26 127.85 1123.26 128.194 1123.26 128.521C1122.5 128.588 1121.89 128.656 1121.32 128.138C1121.32 124.891 1121.32 121.524 1121.32 118.114C1120.64 118.114 1120.08 118.114 1119.48 118.114C1119.48 117.177 1119.48 116.279 1119.48 115.321C1118.11 114.849 1116.65 115.137 1115.27 115.091C1113.78 115.038 1112.28 115.08 1110.74 115.08C1110.74 116.166 1110.74 117.142 1110.74 118.142C1110.07 118.139 1109.46 118.224 1108.82 118.068C1108.82 115.793 1108.82 113.558 1108.82 111.284C1106.82 111.284 1104.89 111.284 1102.85 111.284C1102.85 110.698 1102.85 110.155 1102.85 109.609C1102.85 109.094 1102.85 108.587 1102.85 108.072C1102.85 107.519 1102.85 106.965 1102.85 106.415C1102.85 105.901 1102.85 105.39 1102.85 104.875C1102.85 104.322 1102.85 103.772 1102.85 103.218C1102.85 102.668 1102.9 102.111 1102.83 101.565C1102.77 101.075 1103.15 100.55 1102.55 100.103C1103.04 99.6205 1102.81 99.0812 1102.84 98.5632C1102.88 98.0522 1102.85 97.5377 1102.85 97.0268C1102.85 96.4768 1102.85 95.9233 1102.85 95.3698C1102.85 94.8588 1102.85 94.3443 1102.85 93.8334C1102.85 93.287 1102.85 92.7406 1102.85 92.1125C1101.3 92.1125 1099.82 92.1125 1098.31 92.1125C1098.31 91.6761 1098.34 91.3248 1098.3 90.9735C1098.25 90.6045 1098.57 90.1823 1097.94 89.8842C1098.71 89.3627 1098.18 89.1853 1097.39 89.0362C1097.18 88.9972 1097.05 88.8056 1096.84 88.7346C1095.76 88.3763 1094.94 87.8085 1094 87.3508C1093.01 86.8718 1091.76 86.5276 1091.07 85.7399C1091.07 85.1545 1091.07 84.53 1091.07 83.9374C1090.81 83.7707 1090.58 83.6323 1090.36 83.4904C1090.36 81.7553 1090.36 80.0238 1090.35 78.2887C1090.35 78.2603 1090.28 78.2248 1090.23 78.2071C1090.02 78.1184 1090.17 78.3668 1090.04 78.09C1090.04 79.9776 1090.04 81.7446 1090.04 83.5471C1088.48 83.7707 1089.82 84.5655 1089.25 85.0232C1089.07 85.158 1089.47 85.268 1089.67 85.449C1087.54 87.0528 1084.72 88.1527 1082.01 89.423C1082.01 90.2888 1082.01 91.1829 1082.01 92.1196C1080.64 92.1196 1079.33 92.1196 1078.45 92.1196C1077.31 92.3467 1077.51 92.7477 1077.51 93.0883C1077.49 93.5247 1077.5 93.954 1077.5 94.3905C1077.5 94.8233 1077.5 95.2598 1077.5 95.6927C1077.5 96.1291 1077.5 96.562 1077.5 96.9949C1077.5 97.3887 1077.5 97.7826 1077.5 98.1764C1077.5 98.6093 1077.5 99.0457 1077.5 99.4786C1077.51 99.9115 1077.29 100.412 1077.57 100.76C1077.93 101.203 1077.25 101.505 1077.49 101.888C1077.59 102.058 1077.42 102.338 1077.58 102.448C1077.97 102.715 1077.98 102.906 1077.54 103.116C1078.1 103.371 1077.42 103.602 1077.49 103.857C1077.56 104.166 1077.5 104.485 1077.5 104.804C1077.5 106.813 1077.5 108.825 1077.5 110.836C1077.5 114.622 1077.49 118.412 1077.52 122.194C1077.52 122.524 1077.35 122.858 1077.75 123.202C1078.12 123.518 1077.29 123.844 1077.49 124.249C1077.62 124.515 1077.16 124.618 1076.91 124.77C1076.73 124.657 1076.55 124.543 1076.31 124.394C1076.31 122.673 1076.31 120.91 1076.31 119.107C1073.1 119.107 1069.95 119.107 1066.82 119.107C1066.58 119.107 1066.55 119.356 1066.12 119.263C1066.12 112.603 1066.12 105.922 1066.12 99.2302C1065.5 99.2302 1064.83 99.3544 1064.52 99.2019C1063.99 98.9393 1063.32 99.1451 1062.98 98.9677C1062.44 98.6909 1061.89 98.8719 1061.41 98.7441C1060.09 98.4035 1058.66 98.3467 1057.3 98.1019C1056.06 97.8819 1054.76 97.7293 1053.47 97.591C1052.47 97.4845 1051.44 97.669 1050.42 97.7719C1048.88 97.9245 1047.37 98.1587 1045.87 98.3716C1043.57 98.698 1041.28 99.0777 1038.89 99.3083C1038.89 101.253 1038.89 103.172 1038.89 105.181C1037.85 105.181 1036.87 105.181 1035.84 105.181C1035.84 109.158 1035.84 113.047 1035.84 116.978C1032.26 116.978 1028.74 116.975 1025.21 116.978C1025.16 116.978 1025.1 117.003 1025.06 117.028C1025.01 117.049 1024.98 117.085 1024.93 117.135C1024.99 117.447 1025.36 117.706 1025.35 118.082C1025.31 121.467 1025.32 124.855 1025.32 128.258C1025 128.326 1024.95 128.592 1024.45 128.57C1024.19 128.56 1024.08 128.336 1023.87 128.244C1023.87 117.081 1023.87 105.933 1023.87 94.7985C1024.14 94.7382 1024.36 94.6921 1024.49 94.6601C1024.49 93.6418 1024.49 92.666 1024.49 91.6548C1022.73 90.9984 1020.76 90.8352 1018.84 90.7394C1016.46 90.6223 1014.05 90.711 1011.66 90.7181C1011.55 90.7181 1011.45 90.7855 1011.35 90.8174C1011.31 90.9629 1011.39 91.1368 1011.03 91.1864C1010.54 91.1793 1010.29 90.9806 1010.17 90.6613C1010.29 90.5549 1010.44 90.4378 1010.64 90.2568C1010.14 89.9304 1010.01 89.533 1010.48 89.1178C1009.89 88.7524 1010.28 88.3017 1010.21 87.8901C1010.13 87.4218 1010.19 86.9428 1010.19 86.4709C1010.19 86.038 1010.19 85.6015 1010.19 85.1722C1010.19 84.6967 1010.19 84.2248 1010.19 83.7529C1010.19 83.281 1010.19 82.8056 1010.19 82.3337C1010.19 81.9008 1010.19 81.4643 1010.19 81.0314C1010.19 80.5595 1010.19 80.0841 1010.19 79.6122C1010.19 79.1793 1010.19 78.7429 1010.19 78.31C1010.2 77.8771 1010.05 77.43 1010.52 77.0362C1010.24 76.9794 1010.22 76.7417 1009.77 76.8445C1009.77 81.6914 1009.77 86.556 1009.77 91.3C1005.28 91.8322 1000.95 92.3431 996.574 92.8612C996.574 99.4218 996.574 105.919 996.574 112.43C995.923 112.579 995.065 112.288 994.639 113.047C994.639 118.064 994.639 123.298 994.639 128.514C994.368 128.602 994.069 128.531 994 128.613C994 135.429 994 142.157 994 148.887C1003.13 149.086 1466.37 148.997 1468.13 148.809C1468.13 142.071 1468.13 135.34 1468.13 128.567C1467.37 128.524 1466.7 128.524 1466.02 128.524Z" fill="#101020"/>
</g>
<g clip-path="url(#clip1)">
<path fill-rule="evenodd" clip-rule="evenodd" d="M17.738 126.274C18.2604 126.046 18.1368 125.66 18.1368 125.317C18.1416 123.265 18.1274 121.202 18.1464 119.15C18.1511 118.815 18.0039 118.457 18.3078 118.103C18.9489 118.103 19.6088 118.103 20.321 118.103C20.321 110.356 20.321 102.661 20.321 94.9661C20.321 94.9307 20.3496 94.8873 20.3781 94.8558C20.4066 94.8204 20.4541 94.7968 20.5585 94.718C22.2917 94.718 24.1008 94.718 25.9574 94.718C25.9574 91.5714 25.9574 88.48 25.9574 85.4083C26.4702 85.1838 27.0306 85.4634 27.5149 85.1956C27.4342 84.723 27.6526 84.2229 27.23 83.8055C27.6479 83.6164 28.1179 83.9118 28.4503 83.5731C28.3268 82.7225 28.4693 81.9033 28.9014 81.1078C29.4332 81.2338 29.7419 80.9346 30.0695 80.6549C31.8169 79.1545 33.6498 77.7329 35.6631 76.4884C35.9623 76.3073 35.7723 75.9725 35.948 75.9134C38.7401 75.9134 41.3754 75.9134 43.9965 75.9134C44.025 76.1773 44.0487 76.386 44.0677 76.5987C44.3621 76.6262 44.5995 76.6538 44.8416 76.6774C44.8844 76.7089 44.9224 76.7444 44.9557 76.772C46.6366 78.17 48.2748 79.6035 50.0934 80.8794C50.4638 81.1354 50.8864 80.9818 51.1998 81.2339C51.1998 81.797 51.1854 82.3641 51.2044 82.9272C51.2234 83.5849 51.3421 83.6558 52.4722 83.6794C52.4722 81.4268 52.4722 79.1742 52.4722 76.9058C55.383 76.9058 58.1846 76.9098 60.9909 76.9019C61.4182 76.9019 61.8219 76.8901 62.1685 77.4296C62.1685 93.5681 62.1686 109.884 62.1733 126.195C62.1733 126.223 62.2492 126.251 62.2824 126.278C62.5293 126.235 62.8 126.373 63.066 126.128C63.066 120.899 63.066 115.614 63.066 110.238C63.9254 110.238 64.7326 110.238 65.5446 110.238C65.5446 108.923 65.5493 107.698 65.5351 106.477C65.5351 106.422 65.3974 106.375 65.3215 106.324C65.0271 106.217 64.9511 106.556 64.7041 106.536C64.5522 106.43 64.5616 106.257 64.6329 106.182C65.0317 105.804 65.5067 105.485 65.7346 104.985C65.8723 104.697 66.3281 104.634 66.5275 104.764C67.0641 105.134 67.5389 104.516 67.9947 104.752C68.5788 105.052 69.0442 104.67 69.6187 104.693C69.6187 101.192 69.6187 97.7503 69.6187 94.3005C72.8714 94.3005 76.0576 94.3005 79.2627 94.3005C79.2627 95.1906 79.2627 96.0176 79.2627 96.8485C79.2627 97.6795 79.2864 98.5104 79.2579 99.3414C79.2247 100.168 79.1155 101.019 79.1534 101.815C79.1914 102.614 79.1487 103.437 79.2627 104.24C79.3007 104.488 79.1439 104.764 79.3956 104.985C79.8752 105.103 80.1459 104.693 80.6682 104.709C82.7907 104.784 84.9227 104.764 87.0547 104.717C87.4394 104.709 87.7432 105.111 88.2323 104.772C88.5219 104.567 89.125 104.835 89.5524 104.638C89.5524 104.051 89.5524 103.484 89.5524 102.917C89.5524 102.393 89.5524 101.866 89.5524 101.342C89.5524 100.771 89.5524 100.204 89.5524 99.6328C89.5524 99.109 89.5524 98.5813 89.5524 98.0575C89.5524 97.4865 89.5524 96.9194 89.5524 96.3523C89.5524 95.8246 89.7755 95.1945 89.5001 94.8007C89.0917 94.21 89.6806 93.7847 89.5572 93.2885C89.5049 93.0837 89.6615 92.8474 89.4194 92.6781C89.2437 92.556 89.144 92.363 89.3007 92.2409C89.7613 91.8707 89.5429 91.4218 89.5476 91.0122C89.5713 88.4288 89.5571 85.8454 89.5618 83.2659C89.5618 82.9233 89.5903 82.5807 89.6283 82.2341C89.6378 82.1357 89.9133 82.1239 89.7613 81.9151C89.6141 81.797 89.4241 81.6473 89.1724 81.4504C89.4194 81.2023 89.3196 80.8558 89.4383 80.5919C89.6093 80.2021 89.5476 79.8319 89.5524 79.4538C89.5666 75.8229 89.5619 72.1919 89.5572 68.557C89.5572 68.112 89.6569 67.6552 89.3292 67.2496C89.861 66.8833 89.3149 66.3241 89.7043 65.8673C91.5989 65.9106 93.5505 65.8122 95.5448 65.9342C95.5448 67.0133 95.5448 68.0096 95.5448 69.0493C96.2618 69.0493 96.9218 69.0493 97.5296 69.0493C98.0282 69.4667 98.4651 69.8369 98.9636 70.2544C98.9636 70.7663 98.9636 71.3216 98.9636 71.9241C99.6759 71.9241 100.341 71.9241 100.963 71.9241C101.466 72.4124 102.098 72.7432 102.259 73.393C101.974 73.5545 102.069 73.8577 102.017 74.1492C101.927 74.6887 102.202 75.1258 102.468 75.563C104.899 75.563 107.326 75.563 109.809 75.563C109.809 74.7123 109.809 73.8932 109.809 73.2749C110.431 72.7511 110.896 72.3534 111.447 71.8926C111.941 71.8926 112.558 71.8926 113.223 71.8926C113.223 71.3137 113.223 70.7545 113.223 70.3607C113.821 69.8566 114.296 69.4588 114.88 68.9666C115.393 68.9666 116.044 68.9666 116.751 68.9666C116.751 67.9033 116.751 66.9109 116.751 65.8791C117.53 65.8791 118.247 65.8791 118.973 65.8791C119.652 65.8791 120.398 65.7294 120.987 65.9185C121.67 66.1311 122.273 65.6074 122.933 66.0012C122.933 66.4029 122.933 66.8321 122.933 67.2614C122.933 68.1396 122.933 69.0138 122.933 69.8881C122.933 70.7663 122.933 71.6406 122.933 72.5148C122.933 73.4324 122.933 74.3539 122.933 75.2715C122.933 76.1497 122.933 77.0201 122.933 77.8983C122.933 78.7765 122.933 79.6507 122.933 80.525C122.933 81.4032 122.933 82.2775 122.933 83.1517C122.933 84.0693 122.933 84.9869 122.933 85.9084C122.933 86.7827 122.933 87.6569 122.933 88.5351C122.933 89.4133 122.933 90.2876 122.933 91.1619C122.933 92.0361 122.933 92.9143 122.933 93.7886C122.933 94.7101 122.933 95.6277 122.933 96.5453C122.933 97.4195 122.933 98.2977 122.933 99.172C122.933 100.046 122.933 100.921 122.933 101.799C122.933 102.677 122.933 103.551 122.933 104.425C122.933 105.343 122.976 106.269 122.924 107.182C122.876 108.037 122.91 108.899 122.834 109.754C122.767 110.545 122.929 111.392 122.933 112.215C122.938 115.937 122.933 119.654 122.938 123.376C122.943 123.565 122.805 123.821 123.176 123.927C123.817 123.833 123.888 123.458 123.878 122.978C123.855 121.462 123.869 119.942 123.869 118.382C124.562 118.382 125.118 118.382 125.744 118.382C125.744 117.78 125.744 117.217 125.744 116.657C125.744 116.043 125.744 115.429 125.744 114.818C125.744 114.247 125.616 113.649 125.782 113.117C125.949 112.585 125.725 112.117 125.74 111.62C125.759 111.01 125.744 110.392 125.744 109.777C125.744 109.206 125.744 108.643 125.744 108.072C125.744 107.501 125.744 106.934 125.744 106.363C125.744 105.792 125.744 105.225 125.744 104.654C125.744 104.043 125.744 103.425 125.744 102.815C125.744 102.244 125.744 101.677 125.744 101.11C125.744 100.542 125.744 99.9715 125.744 99.4004C125.744 98.7861 125.744 98.1757 125.744 97.5653C125.744 97.0021 125.744 96.4429 125.744 96.116C126.115 95.2812 126.884 95.7458 127.359 95.3993C127.359 92.5835 127.359 89.7559 127.359 86.9126C127.568 86.9047 127.715 86.8929 127.867 86.889C128.062 86.8851 128.261 86.889 128.451 86.889C128.565 86.0581 128.565 86.062 129.633 85.5697C129.709 85.5343 129.79 85.4398 129.79 85.3728C129.776 84.7427 130.507 85.2586 130.706 84.9317C130.725 84.6521 130.745 84.3568 130.773 83.9393C131.086 84.0969 131.39 83.8645 131.708 84.1717C131.708 84.4158 131.708 84.7073 131.708 84.9908C131.856 85.0184 131.974 85.0735 132.046 85.0459C133.375 84.597 134.766 84.8491 136.129 84.7939C136.794 84.7664 137.136 85.1523 137.425 85.5776C137.777 85.6209 138.142 85.4949 138.522 85.6918C138.522 86.0502 138.522 86.4322 138.522 86.9087C139.064 86.9087 139.562 86.9087 140.104 86.9087C140.104 90.0986 140.104 93.19 140.104 96.2893C142.107 96.2893 144.049 96.2893 146.048 96.2893C146.048 96.0215 146.048 95.8128 146.048 95.5529C147.943 95.5844 149.781 95.5214 151.623 95.5923C151.623 98.9397 151.623 102.177 151.623 105.41C151.77 105.536 151.922 105.658 152.05 105.768C152.777 105.859 153.465 105.839 154.125 105.414C154.125 104.453 154.125 103.461 154.125 102.378C155.498 102.378 156.823 102.378 158.2 102.378C158.2 100.85 158.2 99.4201 158.2 97.963C158.646 97.8527 158.983 97.9709 159.429 98.2111C159.429 93.6153 159.429 89.0865 159.429 84.5616C162.174 84.5616 164.809 84.5616 167.554 84.5616C167.554 92.0046 167.554 99.4201 167.554 106.792C168.736 107.013 169.909 106.572 170.968 107.159C170.968 112.14 170.968 117.075 170.968 122.013C171.267 122.186 171.642 121.958 171.908 122.234C171.59 122.789 172.388 122.482 172.563 122.848C172.563 123.903 172.563 125.069 172.563 126.251C173.01 126.278 173.413 126.384 173.769 126.164C173.769 108.643 173.769 91.1382 173.769 73.8184C174.054 73.078 174.581 72.6802 175.051 72.2982C174.771 71.7154 174.952 71.357 175.655 70.9711C175.655 69.3171 175.655 67.6552 175.655 66.009C176.704 64.9891 176.804 64.5913 176.272 63.6619C176.676 63.272 176.922 62.8428 176.894 62.3072C176.87 61.7874 176.889 61.2636 176.889 60.7674C177.212 60.4957 177.511 60.2476 177.848 59.9561C177.777 59.4481 177.649 58.6644 178.166 58.4675C178.845 58.2155 178.898 57.487 179.691 57.3964C179.719 56.5261 179.648 55.64 179.971 54.7696C180.085 54.4625 180.36 54.2144 180.336 53.8363C180.279 52.6588 180.27 51.4734 180.341 50.2959C180.365 49.9376 179.733 49.7367 180.033 49.5043C180.593 49.0672 180.094 48.4923 180.469 48C180.773 48.3269 180.46 48.7404 180.683 48.9727C181.215 49.5319 181.091 50.2368 180.887 50.7055C180.46 51.6979 180.773 52.6706 180.64 53.6355C180.621 53.7536 180.636 53.9544 180.716 53.9938C181.381 54.3049 181.234 54.872 181.258 55.3407C181.88 55.4864 182.093 55.0177 182.487 55.002C182.554 54.7499 182.388 54.5097 182.658 54.3443C183.029 54.62 182.668 55.0099 182.877 55.317C183.2 55.4037 183.546 55.4943 183.755 55.8014C183.755 56.1677 183.812 56.5654 183.741 56.9514C183.651 57.4436 184.32 57.6051 184.335 57.9201C184.358 58.3927 185.166 58.2155 185.061 58.7156C185.018 58.9244 185.75 58.7747 185.531 58.9637C185.142 59.3024 185.655 59.3773 185.64 59.582C185.621 59.8301 185.541 60.0979 185.721 60.3381C185.864 60.3696 186.006 60.3972 186.144 60.4327C186.186 60.4445 186.215 60.4957 186.248 60.5272C186.248 61.3109 186.248 62.0985 186.248 63.0397C186.4 63.1224 186.671 63.2681 186.894 63.3863C186.894 64.1542 186.894 64.8473 186.894 65.6822C187.07 65.7688 187.336 65.9027 187.535 66.0012C187.535 67.7812 187.535 69.4352 187.535 70.9199C188.119 71.3255 188.428 71.6839 188.437 72.2116C188.437 72.377 188.319 72.6133 188.551 72.6881C189.539 73.011 189.363 73.7199 189.363 74.3579C189.368 79.1742 189.363 83.9866 189.373 88.8029C189.373 89.1337 189.23 89.4921 189.463 89.752C190.916 89.752 192.302 89.752 193.741 89.752C193.741 85.999 193.741 82.2932 193.741 78.4968C194.501 78.5441 195.213 78.3787 195.859 78.7213C196.6 77.9888 195.959 77.1421 196.358 76.4096C196.756 76.4096 197.169 76.4411 197.573 76.4057C198.846 76.2915 199.871 76.6184 200.906 77.28C201.97 77.9613 203.081 78.7489 204.658 78.4929C204.658 85.4673 204.658 92.3276 204.658 99.1878C205.246 99.2508 205.745 99.4004 206.253 99.68C206.253 100.294 206.253 100.94 206.253 101.578C207.792 101.637 207.792 101.637 208.499 101.358C208.713 101.271 208.912 101.157 209.135 101.07C209.515 100.921 209.658 101.574 210.028 101.177C210.175 101.019 210.237 101.263 210.346 101.303C210.745 101.444 211.134 101.59 211.514 101.728C211.514 104.043 211.514 106.32 211.514 108.588C211.666 108.718 211.813 108.836 212.013 109.009C212.725 109.009 213.494 109.009 214.306 109.009C214.306 110.663 214.306 112.27 214.306 113.81C214.848 114.487 215.593 114.141 216.215 114.22C216.695 114.279 217.136 114.224 217.483 113.735C217.483 112.664 217.483 111.494 217.483 110.278C220.588 110.278 223.642 110.278 226.676 110.278C226.97 108.316 227.212 106.402 227.103 104.461C227.084 104.114 227.075 103.76 227.113 103.413C227.127 103.276 227.279 103.15 227.35 103.047C227.198 102.72 226.918 102.519 226.937 102.098C226.956 101.688 227.17 101.326 227.117 100.909C227.046 100.389 227.098 99.8572 227.098 99.3374C227.098 92.3354 227.094 85.3295 227.103 78.3314C227.103 77.9534 226.984 77.5596 227.25 77.154C232.692 77.154 238.129 77.154 243.628 77.154C243.628 75.9371 243.628 74.7674 243.628 73.6096C244.102 73.3773 244.729 73.7238 245.066 73.2355C245.138 73.141 245.204 73.1056 245.009 72.9953C244.71 73.0701 244.492 72.952 244.563 72.5936C244.682 72.3652 245.081 72.57 245.204 72.2628C245.066 71.8453 244.553 71.4082 244.986 70.9356C246.101 70.9356 247.179 70.9356 248.229 70.9356C248.542 71.487 248.067 71.9202 247.987 72.3061C248.21 72.5621 248.656 72.3416 248.618 72.7157C248.746 73.1568 247.725 72.8614 248.006 73.4088C248.328 73.6805 248.794 73.3931 249.264 73.6333C249.264 80.907 249.264 88.2358 249.264 95.5568C249.724 95.5765 250.076 95.5922 250.532 95.6159C250.532 98.3411 250.532 101.031 250.532 103.677C252.968 103.677 255.29 103.677 257.673 103.677C257.673 101.59 257.673 99.5461 257.673 97.4707C262.061 97.4707 266.396 97.4707 270.788 97.4707C270.788 102.452 270.788 107.387 270.788 112.329C271.334 112.329 271.823 112.329 272.327 112.329C272.327 106.891 272.327 101.507 272.327 96.1279C272.327 95.8207 272.365 95.5096 272.312 95.2103C272.26 94.8795 272.55 94.7534 272.802 94.5211C274.454 94.5211 276.149 94.5211 277.963 94.5211C277.963 88.0232 277.963 81.5686 277.963 75.1337C282.892 75.1337 287.711 75.1337 292.493 75.1337C292.745 75.3779 292.431 75.6968 292.688 75.8426C293.31 75.8426 293.865 75.8426 294.383 75.8426C294.587 75.5905 294.297 75.2676 294.635 75.1022C296.515 75.1022 298.381 75.1022 300.399 75.1022C300.399 75.6299 300.399 76.067 300.399 76.5002C300.399 77.0713 300.399 77.6383 300.399 78.2054C300.399 78.7725 300.399 79.3435 300.399 79.9146C300.399 80.4817 300.399 81.0527 300.399 81.6237C300.399 82.1948 300.399 82.7618 300.399 83.3289C300.399 83.896 300.399 84.4671 300.399 85.0341C300.399 85.6052 300.399 86.1723 300.399 86.7433C300.399 87.3143 300.399 87.8814 300.399 88.4524C300.399 89.0234 300.399 89.5906 300.399 90.1577C300.399 90.7287 300.399 91.2958 300.399 91.8668C300.399 92.4339 300.399 93.0049 300.399 93.572C300.399 94.1824 300.399 94.7968 300.399 95.4111C300.399 95.9782 300.399 96.5492 300.399 97.1163C300.399 97.6873 300.399 98.2584 300.399 98.8255C300.399 99.3965 300.399 99.9636 300.399 100.535C300.399 101.102 300.399 101.673 300.399 102.24C300.399 102.811 300.399 103.378 300.399 103.949C300.399 104.516 300.399 105.083 300.399 105.654C300.399 106.225 300.432 106.796 300.39 107.363C300.352 107.915 300.366 108.458 300.285 109.013C300.209 109.486 300.399 110.045 300.399 110.569C300.404 115.429 300.399 120.284 300.399 125.144C300.399 125.526 300.399 125.908 300.399 126.27C301.026 126.345 301.534 126.42 301.999 125.845C301.999 122.242 301.999 118.504 301.999 114.72C302.564 114.72 303.025 114.72 303.524 114.72C303.524 113.68 303.524 112.684 303.524 111.62C304.649 111.097 305.855 111.416 306.995 111.364C308.22 111.305 309.454 111.353 310.731 111.353C310.731 112.558 310.731 113.641 310.731 114.751C311.278 114.747 311.781 114.842 312.308 114.669C312.308 112.144 312.308 109.663 312.308 107.139C313.96 107.139 315.556 107.139 317.237 107.139C317.237 106.489 317.237 105.887 317.237 105.28C317.237 104.709 317.237 104.146 317.237 103.575C317.237 102.96 317.237 102.346 317.237 101.736C317.237 101.165 317.237 100.598 317.237 100.027C317.237 99.4122 317.237 98.8018 317.237 98.1875C317.237 97.5771 317.194 96.9588 317.251 96.3523C317.298 95.8089 316.99 95.226 317.484 94.7298C317.075 94.1942 317.27 93.5956 317.242 93.0207C317.213 92.4536 317.237 91.8825 317.237 91.3155C317.237 90.705 317.237 90.0907 317.237 89.4763C317.237 88.9093 317.237 88.3382 317.237 87.7711C317.237 87.1647 317.237 86.5582 317.237 85.8611C318.514 85.8611 319.734 85.8611 320.979 85.8611C320.979 85.3768 320.95 84.9869 320.988 84.597C321.026 84.1874 320.765 83.7188 321.282 83.388C320.651 82.8091 321.083 82.6122 321.733 82.4468C321.909 82.4035 322.014 82.1908 322.189 82.1121C323.077 81.7143 323.756 81.0842 324.535 80.5762C325.352 80.0445 326.382 79.6625 326.947 78.7883C326.947 78.1385 326.947 77.4454 326.947 76.7877C327.166 76.6026 327.351 76.449 327.531 76.2915C327.531 74.3658 327.531 72.444 327.541 70.5182C327.541 70.4867 327.602 70.4473 327.64 70.4276C327.811 70.3292 327.688 70.6049 327.802 70.2977C327.802 72.3928 327.802 74.3539 327.802 76.3545C329.089 76.6026 327.982 77.4847 328.452 77.9928C328.595 78.1424 328.272 78.2645 328.106 78.4653C329.858 80.2454 332.185 81.4662 334.421 82.8761C334.421 83.837 334.421 84.8294 334.421 85.869C335.551 85.869 336.629 85.869 337.36 85.869C338.301 86.1211 338.13 86.5661 338.134 86.9441C338.144 87.4285 338.139 87.905 338.139 88.3894C338.139 88.8699 338.139 89.3543 338.139 89.8347C338.139 90.3191 338.139 90.7996 338.139 91.28C338.139 91.7171 338.139 92.1543 338.139 92.5914C338.139 93.0719 338.139 93.5563 338.139 94.0367C338.134 94.5172 338.31 95.0724 338.082 95.4584C337.788 95.9506 338.343 96.2854 338.149 96.7107C338.063 96.8997 338.206 97.2108 338.073 97.3329C337.75 97.6283 337.74 97.8409 338.111 98.0733C337.645 98.3568 338.206 98.6128 338.149 98.8963C338.092 99.239 338.139 99.5934 338.139 99.9478C338.139 102.177 338.139 104.41 338.139 106.643C338.139 110.845 338.144 115.051 338.125 119.249C338.12 119.615 338.267 119.985 337.93 120.367C337.626 120.718 338.315 121.08 338.149 121.529C338.039 121.824 338.419 121.938 338.623 122.108C338.771 121.982 338.923 121.856 339.122 121.69C339.122 119.78 339.122 117.823 339.122 115.822C341.767 115.822 344.364 115.822 346.947 115.822C347.142 115.822 347.171 116.098 347.522 115.996C347.522 108.604 347.522 101.188 347.522 93.761C348.039 93.761 348.59 93.8989 348.842 93.7295C349.279 93.4381 349.83 93.6665 350.115 93.4696C350.556 93.1624 351.017 93.3633 351.411 93.2215C352.498 92.8435 353.681 92.7804 354.796 92.5087C355.822 92.2646 356.895 92.0952 357.954 91.9416C358.78 91.8235 359.63 92.0283 360.476 92.1425C361.739 92.3118 362.987 92.5717 364.222 92.808C366.121 93.1703 368.006 93.5917 369.982 93.8477C369.982 96.0058 369.982 98.1363 369.982 100.365C370.836 100.365 371.644 100.365 372.494 100.365C372.494 104.78 372.494 109.096 372.494 113.46C375.452 113.46 378.353 113.456 381.259 113.46C381.307 113.46 381.354 113.487 381.387 113.515C381.425 113.538 381.454 113.578 381.496 113.633C381.44 113.979 381.14 114.267 381.145 114.684C381.183 118.441 381.169 122.202 381.169 125.979C381.435 126.054 381.477 126.349 381.886 126.325C382.104 126.314 382.19 126.065 382.37 125.963C382.37 113.574 382.37 101.2 382.37 88.8423C382.147 88.7754 381.962 88.7242 381.853 88.6887C381.853 87.5585 381.853 86.4755 381.853 85.3531C383.306 84.6246 384.93 84.4434 386.516 84.3371C388.481 84.2071 390.466 84.3056 392.437 84.3135C392.527 84.3135 392.608 84.3883 392.693 84.4237C392.722 84.5852 392.66 84.7782 392.954 84.8333C393.363 84.8254 393.562 84.6049 393.662 84.2505C393.562 84.1323 393.443 84.0023 393.277 83.8015C393.69 83.4392 393.8 82.9981 393.405 82.5374C393.899 82.1317 393.576 81.6316 393.629 81.1748C393.695 80.6549 393.648 80.1233 393.648 79.5995C393.648 79.1191 393.648 78.6347 393.648 78.1582C393.648 77.6305 393.648 77.1067 393.648 76.5829C393.648 76.0591 393.648 75.5315 393.648 75.0077C393.648 74.5272 393.648 74.0428 393.648 73.5624C393.648 73.0386 393.648 72.5109 393.648 71.9871C393.648 71.5067 393.652 71.0223 393.648 70.5418C393.638 70.0614 393.766 69.5652 393.377 69.128C393.61 69.065 393.624 68.8012 393.999 68.9154C393.999 74.2949 393.999 79.6941 393.999 84.9593C397.698 85.55 401.269 86.1171 404.878 86.6921C404.878 93.9737 404.878 101.184 404.878 108.411C405.414 108.576 406.122 108.253 406.473 109.096C406.473 114.665 406.473 120.473 406.473 126.262C406.696 126.361 406.943 126.282 407 126.373C407 133.938 407 141.404 407 148.875C399.469 149.096 17.4483 148.997 16 148.788C16 141.31 16 133.839 16 126.321C16.622 126.274 17.173 126.274 17.738 126.274Z" fill="#101020"/>
</g>
<path fill-rule="evenodd" clip-rule="evenodd" d="M939.377 130.353H958.016C960.245 126.909 962.271 123.465 964.094 119.818C961.055 106.244 957.611 93.8857 952.546 85.174L951.533 85.9844L950.52 83.9584L949.507 84.9714L947.076 81.7299C946.063 82.3377 946.468 84.161 949.304 87.4026C948.291 87.6052 947.278 86.9974 946.063 85.9844C947.076 86.7948 947.886 87.6052 948.291 88.6182C947.684 88.6182 946.873 88.4156 946.265 87.6052C947.684 89.4286 948.899 91.6571 949.71 93.8857C946.671 92.8727 943.834 91.6571 943.429 84.9714C943.226 85.9844 942.821 86.3896 942.416 86.5922C942.416 85.174 942.011 83.9584 940.998 83.5532C941.606 84.5662 942.011 85.9844 942.416 87.6052C941.403 86.9974 940.187 85.9844 939.377 84.5662C940.593 85.9844 941.403 87.8078 941.808 89.6312C940.998 89.0234 939.985 88.4156 939.175 87.2C941.2 91.6571 942.011 94.0883 941.808 94.4935C940.39 95.7091 937.959 87.6052 935.528 88.0104C934.717 86.9974 935.933 84.7688 938.769 81.7299L935.528 84.7688C935.73 82.7429 936.541 81.1221 938.162 79.7039C934.717 82.1351 932.489 85.174 933.299 90.8468C926.411 86.9974 933.907 79.7039 937.149 76.4623L931.881 80.7169C932.084 79.5013 932.489 78.4883 932.894 77.6779L930.868 80.7169C930.868 79.0961 931.071 77.6779 931.678 76.0571C930.26 78.8935 929.045 81.5273 929.045 84.7688C926.613 82.7429 923.777 72.8156 937.351 72.8156C937.351 71.1948 939.377 71.3974 942.213 72.2078C937.149 69.7766 932.084 69.9792 927.019 75.2468C926.816 72.4104 928.234 69.574 932.691 66.1299C933.502 66.9403 934.11 67.5481 934.92 67.5481L933.907 65.7247C934.92 65.9273 936.136 66.9403 937.149 68.1558C936.541 67.3455 935.73 66.5351 935.325 65.5221C936.541 65.7247 937.756 66.3325 938.769 67.5481C937.959 64.7117 935.528 64.1039 931.476 64.9143C933.907 61.8753 936.743 59.6468 941.2 64.3065C941.2 56.6078 945.86 56.8104 951.533 57.6208L949.102 59.8494C946.873 59.4442 945.658 59.8494 945.252 60.6597H948.697C946.873 61.4701 945.86 62.4831 946.671 63.2935C951.736 57.013 955.382 60.6597 958.826 56C959.232 59.4442 957.611 61.0649 954.167 60.4571C954.572 60.8623 955.18 61.0649 955.787 60.8623C955.382 61.6727 954.775 62.0779 953.964 62.2805H957.003V62.8883C959.637 63.0909 961.055 64.1039 961.865 65.5221L959.839 65.3195C962.473 65.9273 963.689 67.3455 964.094 69.1688L955.382 64.9143C955.99 65.5221 956.193 66.1299 955.99 66.5351C952.951 65.9273 952.343 66.5351 951.938 68.1558C959.029 65.5221 962.676 68.1558 963.891 75.2468C962.271 74.2338 961.055 72.8156 960.042 70.7896V72.613C958.016 70.7896 955.99 70.7896 953.964 71.6C957.003 72.2078 959.434 73.8286 961.055 76.0571C959.839 75.6519 958.624 75.2468 957.408 74.639C959.029 75.4494 959.839 76.4623 960.447 77.6779C959.232 77.2727 958.219 76.6649 957.003 75.6519L958.421 77.6779C957.408 77.4753 956.395 76.8675 955.382 75.8545L955.787 77.4753C954.369 76.2597 952.749 75.4494 950.723 75.4494L953.559 78.0831L952.749 78.8935L955.382 81.9325L954.369 82.9455C959.029 89.8338 963.081 100.977 966.728 114.956C969.362 109.283 971.793 103.61 973.413 97.1273L973.008 96.9247C972.603 94.4935 972.198 91.8597 973.413 89.8338C971.59 90.4416 970.78 91.6571 970.172 93.2779L969.767 91.8597C969.564 93.0753 968.956 93.6831 968.146 94.2909L968.551 92.2649C967.943 93.4805 967.336 94.4935 966.728 95.1013C966.525 94.0883 966.93 92.8727 967.741 91.6571C967.133 92.6701 966.323 93.4805 965.512 94.0883C965.917 91.6571 967.133 89.6312 969.362 87.8078C967.336 88.0104 965.917 88.8208 965.107 91.0494L964.297 89.6312C964.297 91.6571 963.891 93.2779 963.081 94.6961C961.258 88.8208 963.081 85.174 969.362 84.5662C968.551 83.3507 967.741 83.1481 965.715 84.9714C965.512 84.5662 965.512 83.9584 965.715 83.3507L960.447 90.0364C960.245 88.4156 960.447 86.9974 962.271 85.3766L960.852 86.3896C961.055 84.9714 961.663 83.5532 963.486 82.3377L963.284 81.9325L965.715 80.7169C964.904 80.9195 964.297 80.7169 963.689 80.5143C964.297 80.3117 964.702 79.9065 964.904 79.5013C962.271 81.1221 960.447 80.7169 959.434 77.6779C963.891 80.1091 965.31 75.6519 971.793 78.6909C971.995 77.6779 970.982 77.2727 969.159 77.4753L971.793 76.0571C971.185 75.6519 970.172 75.6519 968.551 77.0701L965.715 76.2597C969.969 73.2208 973.413 71.3974 976.452 77.4753C978.073 72.0052 980.91 72.613 984.151 74.0312C980.707 74.8416 979.086 76.4623 979.491 78.8935C979.897 77.6779 980.504 76.6649 981.517 76.0571C981.517 77.0701 981.315 77.8805 981.112 78.6909C981.315 77.2727 981.923 76.2597 982.733 75.6519L982.53 77.4753C983.138 77.2727 983.543 76.4623 983.543 75.4494C988.608 76.4623 990.634 78.0831 991.647 80.3117C985.569 78.2857 981.72 80.1091 978.681 83.9584C980.504 82.1351 982.125 81.3247 982.733 82.3377C993.268 77.2727 994.686 85.9844 993.673 88.6182C992.458 86.187 990.432 84.3636 988.406 82.9455C989.419 83.7558 990.026 84.9714 990.634 86.187L988 84.5662C988.608 84.9714 989.419 85.5792 989.824 86.3896L984.151 85.174C988 86.5922 996.712 89.226 992.66 94.8987C991.242 90.239 988.203 88.8208 984.759 88.213C986.38 88.6182 987.798 89.4286 988.608 91.0494L984.962 90.0364C988.406 91.2519 990.229 92.4675 990.026 93.6831C988 94.2909 989.216 101.382 987.595 100.977C987.19 100.774 986.987 98.5455 986.785 94.2909C986.582 95.5065 986.177 96.5195 985.569 97.3299C985.367 95.7091 985.367 94.0883 985.569 92.2649C985.569 93.8857 984.962 94.8987 984.556 95.9117C984.151 94.4935 983.949 93.2779 983.949 92.0623C983.341 92.8727 983.543 93.8857 983.949 95.1013C983.746 95.1013 983.341 94.8987 982.733 94.2909C984.962 99.5584 983.138 101.787 981.112 103.61C981.112 101.584 981.112 99.3558 981.517 97.3299C981.315 98.1403 980.707 98.7481 980.302 98.9507C980.302 98.1403 980.504 97.1273 980.91 96.1143C980.504 97.3299 979.897 98.3429 979.086 98.5455C979.897 94.8987 979.694 93.2779 978.478 93.0753C978.276 95.5065 977.06 96.9247 976.047 97.9377H975.642C974.224 104.218 971.59 111.309 967.741 119.21C968.551 122.655 969.362 126.504 970.172 130.353H986.582V134H939.377V130.353ZM961.865 130.353H966.525L965.107 124.275L961.865 130.353Z" fill="#101020"/>
<path fill-rule="evenodd" clip-rule="evenodd" d="M261.831 127.086H246.518C244.687 124.257 243.023 121.427 241.525 118.431C244.021 107.279 246.851 97.1257 251.012 89.9685L251.845 90.6343L252.677 88.9698L253.509 89.802L255.506 87.1389C256.339 87.6382 256.006 89.1362 253.675 91.7994C254.508 91.9658 255.34 91.4665 256.339 90.6343C255.506 91.3 254.841 91.9658 254.508 92.7981C255.007 92.7981 255.673 92.6316 256.172 91.9658C255.007 93.4639 254.008 95.2948 253.343 97.1257C255.839 96.2935 258.17 95.2948 258.502 89.802C258.669 90.6343 259.002 90.9671 259.335 91.1336C259.335 89.9685 259.668 88.9698 260.5 88.6369C260 89.4691 259.668 90.6343 259.335 91.9658C260.167 91.4665 261.166 90.6343 261.831 89.4691C260.833 90.6343 260.167 92.1323 259.834 93.6303C260.5 93.131 261.332 92.6316 261.998 91.6329C260.333 95.2948 259.668 97.2922 259.834 97.6251C260.999 98.6237 262.996 91.9658 264.994 92.2987C265.66 91.4665 264.661 89.6356 262.331 87.1389L264.994 89.6356C264.827 87.9711 264.162 86.6395 262.83 85.4744C265.66 87.4717 267.491 89.9685 266.825 94.629C272.484 91.4665 266.325 85.4744 263.662 82.8112L267.99 86.3066C267.823 85.3079 267.491 84.4757 267.158 83.8099L268.822 86.3066C268.822 84.975 268.656 83.8099 268.156 82.4783C269.322 84.8086 270.32 86.9724 270.32 89.6356C272.318 87.9711 274.648 79.8152 263.496 79.8152C263.496 78.4836 261.831 78.65 259.501 79.3158C263.662 77.3184 267.823 77.4849 271.985 81.8125C272.151 79.4823 270.986 77.152 267.324 74.3224C266.658 74.9882 266.159 75.4875 265.493 75.4875L266.325 73.9895C265.493 74.1559 264.495 74.9882 263.662 75.9869C264.162 75.3211 264.827 74.6553 265.16 73.823C264.162 73.9895 263.163 74.4888 262.331 75.4875C262.996 73.1572 264.994 72.6579 268.323 73.3237C266.325 70.827 263.995 68.9961 260.333 72.8244C260.333 66.4993 256.505 66.6658 251.845 67.3316L253.842 69.1625C255.673 68.8296 256.671 69.1625 257.004 69.8283H254.175C255.673 70.4941 256.505 71.3263 255.839 71.9921C251.678 66.8322 248.682 69.8283 245.852 66C245.519 68.8296 246.851 70.1612 249.681 69.6618C249.348 69.9947 248.848 70.1612 248.349 69.9947C248.682 70.6605 249.181 70.9934 249.847 71.1599H247.35V71.6592C245.187 71.8257 244.021 72.6579 243.356 73.823L245.02 73.6566C242.856 74.1559 241.858 75.3211 241.525 76.8191L248.682 73.3237C248.183 73.823 248.016 74.3224 248.183 74.6553C250.679 74.1559 251.179 74.6553 251.512 75.9869C245.686 73.823 242.69 75.9869 241.691 81.8125C243.023 80.9803 244.021 79.8152 244.854 78.1507V79.6487C246.518 78.1507 248.183 78.1507 249.847 78.8165C247.35 79.3158 245.353 80.6474 244.021 82.4783C245.02 82.1454 246.019 81.8125 247.018 81.3132C245.686 81.979 245.02 82.8112 244.521 83.8099C245.519 83.477 246.352 82.9777 247.35 82.1454L246.185 83.8099C247.018 83.6434 247.85 83.1441 248.682 82.3119L248.349 83.6434C249.514 82.6448 250.846 81.979 252.51 81.979L250.18 84.1428L250.846 84.8086L248.682 87.3053L249.514 88.1375C245.686 93.7968 242.357 102.951 239.361 114.436C237.197 109.776 235.2 105.115 233.868 99.7889L234.201 99.6224C234.534 97.6251 234.867 95.4612 233.868 93.7968C235.366 94.2961 236.032 95.2948 236.531 96.6264L236.864 95.4612C237.031 96.4599 237.53 96.9593 238.196 97.4586L237.863 95.7941C238.362 96.7928 238.862 97.6251 239.361 98.1244C239.527 97.2922 239.194 96.2935 238.529 95.2948C239.028 96.127 239.694 96.7928 240.36 97.2922C240.027 95.2948 239.028 93.6303 237.197 92.1323C238.862 92.2987 240.027 92.9645 240.693 94.7954L241.358 93.6303C241.358 95.2948 241.691 96.6264 242.357 97.7915C243.855 92.9645 242.357 89.9685 237.197 89.4691C237.863 88.4704 238.529 88.304 240.193 89.802C240.36 89.4691 240.36 88.9698 240.193 88.4704L244.521 93.9632C244.687 92.6316 244.521 91.4665 243.023 90.1349L244.188 90.9671C244.021 89.802 243.522 88.6369 242.024 87.6382L242.191 87.3053L240.193 86.3066C240.859 86.4731 241.358 86.3066 241.858 86.1402C241.358 85.9737 241.025 85.6408 240.859 85.3079C243.023 86.6395 244.521 86.3066 245.353 83.8099C241.691 85.8073 240.526 82.1454 235.2 84.6421C235.033 83.8099 235.866 83.477 237.364 83.6434L235.2 82.4783C235.699 82.1454 236.531 82.1454 237.863 83.3106L240.193 82.6448C236.698 80.148 233.868 78.65 231.371 83.6434C230.04 79.1494 227.71 79.6487 225.046 80.8138C227.876 81.4796 229.208 82.8112 228.875 84.8086C228.542 83.8099 228.042 82.9777 227.21 82.4783C227.21 83.3106 227.377 83.9763 227.543 84.6421C227.377 83.477 226.877 82.6448 226.212 82.1454L226.378 83.6434C225.879 83.477 225.546 82.8112 225.546 81.979C221.385 82.8112 219.72 84.1428 218.888 85.9737C223.881 84.3092 227.044 85.8073 229.541 88.9698C228.042 87.4717 226.711 86.806 226.212 87.6382C217.556 83.477 216.391 90.6343 217.223 92.7981C218.222 90.8007 219.887 89.3027 221.551 88.1375C220.719 88.8033 220.219 89.802 219.72 90.8007L221.884 89.4691C221.385 89.802 220.719 90.3014 220.386 90.9671L225.046 89.9685C221.884 91.1336 214.727 93.2974 218.056 97.9579C219.221 94.1297 221.717 92.9645 224.547 92.4652C223.216 92.7981 222.05 93.4639 221.385 94.7954L224.381 93.9632C221.551 94.9619 220.053 95.9606 220.219 96.9593C221.884 97.4586 220.885 103.284 222.217 102.951C222.55 102.785 222.716 100.954 222.883 97.4586C223.049 98.4573 223.382 99.2895 223.881 99.9553C224.048 98.6237 224.048 97.2922 223.881 95.7941C223.881 97.1257 224.381 97.9579 224.714 98.7902C225.046 97.6251 225.213 96.6264 225.213 95.6277C225.712 96.2935 225.546 97.1257 225.213 98.1244C225.379 98.1244 225.712 97.9579 226.212 97.4586C224.381 101.786 225.879 103.617 227.543 105.115C227.543 103.451 227.543 101.62 227.21 99.9553C227.377 100.621 227.876 101.12 228.209 101.287C228.209 100.621 228.042 99.7889 227.71 98.9566C228.042 99.9553 228.542 100.788 229.208 100.954C228.542 97.9579 228.708 96.6264 229.707 96.4599C229.873 98.4573 230.872 99.6224 231.704 100.455H232.037C233.202 105.615 235.366 111.44 238.529 117.932C237.863 120.761 237.197 123.924 236.531 127.086H223.049V130.082H261.831V127.086ZM243.356 127.086H239.527L240.693 122.093L243.356 127.086Z" fill="#101020"/>
<path fill-rule="evenodd" clip-rule="evenodd" d="M26.8743 87.9014C25.7324 87.928 24.3889 87.8905 23.083 89.7385C23.6157 89.5276 24.4202 89.6026 24.7904 89.9213C23.1424 90.0025 21.5162 91.4631 21.688 93.158C22.1754 92.43 22.6753 92.0879 23.1861 92.1754C20.6461 95.0857 21.7786 98.7707 24.0968 99.6752C24.0453 99.4003 23.7407 95.1466 24.603 96.8509C25.4778 98.5802 23.8625 94.0765 24.8513 94.3765C25.22 94.4874 25.0716 90.5477 27.8709 90.4102C27.0133 91.0319 25.962 91.7115 26.0854 93.7625C26.365 93.3267 27.0258 92.958 27.5023 92.9987C26.2916 93.9266 25.9323 95.8605 27.0946 97.0211C27.0274 96.2276 27.2008 95.7121 27.6444 95.5059C27.6819 97.0368 28.4786 98.2927 29.9923 99.6377C30.0298 100.87 30.6375 100.709 30.2407 101.05L30.4547 102.114C30.6234 102.381 29.922 103.187 30.7046 103.824C31.4435 104.424 30.1579 104.477 31.0483 105.969C31.1702 106.172 31.7653 106.306 31.6154 106.597C30.9405 107.901 32.3699 108.923 32.2777 109.189C31.8138 110.516 33.0385 110.923 32.9838 111.219L33.0619 112.894C33.1494 113.214 33.5774 113.186 33.6868 113.434C33.7446 113.561 33.026 114.047 33.6243 114.929L33.8414 115.865L33.918 117.218L34.1007 117.762C32.5308 117.888 33.9429 118.327 31.8403 118.95L30.8077 119.663C33.3306 118.39 30.1923 121.408 31.7575 120.423C33.0728 119.596 32.3824 120.851 32.7214 120.875C32.9994 120.881 33.3118 120.122 33.3322 120.655C33.379 121.915 35.0083 118.652 34.371 120.375L35.3551 119.716C35.5207 119.842 35.4801 122.3 36.1846 120.031C36.4908 119.043 36.8376 121.148 37.3015 120.631L37.842 120.213L38.9355 120.423C40.2133 121.367 38.545 119.069 39.6807 120.128L40.807 120.248L40.3524 119.452C38.9355 118.204 43.1986 120.174 41.2006 119.172L38.1623 117.304C36.0393 114.133 38.3294 119.427 37.7264 116.318C37.4296 114.794 35.1833 116.212 36.7517 115.175C37.7842 114.49 36.3049 113.836 36.3033 113.834L36.4314 113.005C35.252 109.998 35.5582 112.296 35.0271 111.388C34.7303 110.882 35.9034 111.691 35.2692 109.907L34.6006 108.415C34.071 108.048 35.0005 107.476 33.8149 106.36C33.429 105.996 34.4428 105.796 33.3306 104.716C33.0885 104.482 33.7789 103.687 33.026 103.424C32.6245 103.285 33.379 102.114 32.7042 101.55L32.3293 99.8361L31.9622 97.9053C31.481 97.4742 32.5495 97.5866 31.7388 96.2885L31.6279 93.9656C31.2014 93.5454 32.1746 93.3767 31.5873 92.8253C31.0389 92.3113 32.273 92.4347 31.5638 91.3662C31.2295 90.8632 32.3621 90.8523 31.517 90.054L31.9262 89.2433C31.9575 88.9324 31.9934 88.6231 32.0325 88.3138L32.7323 92.2707C32.7729 92.1457 33.1759 90.5539 33.2166 90.368C34.6803 93.197 32.8901 95.4856 33.7664 94.4655L33.5821 96.8556L34.0023 99.5596C35.4504 97.8491 36.119 96.3979 35.8894 94.7842C36.3611 94.9138 36.6189 95.3918 36.6829 96.187C37.6374 94.8513 36.9626 93.0018 35.6144 92.2879C36.0768 92.1692 36.7907 92.4238 37.1375 92.8081C36.9204 90.7648 35.7691 90.268 34.8209 89.7978C35.5707 89.5932 36.4205 89.826 36.8313 90.0853C36.7329 89.8322 36.6001 89.5948 36.4424 89.3729C37.992 90.3415 38.6668 90.7289 38.7309 92.1301C38.8231 94.1749 39.3417 89.512 39.9728 93.536C40.1321 94.5483 40.5461 92.1942 41.1897 94.817C41.5786 96.401 40.343 98.0131 41.4006 96.6915C42.1035 95.8121 42.266 98.3224 42.3691 99.3081C44.2593 97.8475 44.2108 93.6298 40.971 91.021C41.4209 90.8195 41.9895 91.085 42.6628 91.7677C42.3144 89.9009 40.3602 88.6669 38.7996 88.9246C39.048 88.5044 39.7759 88.2529 40.3352 88.3701C38.5653 86.6486 37.3234 86.9719 36.2518 87.1828L38.0295 86.1346L35.8316 85.4692C37.9951 85.0021 38.7606 86.7392 38.2326 85.6644C37.7061 84.5913 39.123 85.2302 39.7697 86.2659C40.5992 87.5968 39.3073 85.0162 40.4149 85.8894L43.183 89.0636C43.9531 86.697 42.9174 83.6493 41.0522 83.6087C41.31 83.1572 41.8911 82.9885 42.7612 83.0713C41.5583 81.8653 39.3979 82.1996 38.2919 83.4228C38.2794 82.9354 38.7309 82.2637 39.2323 81.9872C36.975 81.8263 36.1549 82.8917 35.4098 83.7571C35.3785 82.9651 35.8409 82.1528 36.2221 81.7888C35.1239 81.9794 34.1507 82.6667 33.3525 83.5009C36.1096 79.5112 36.5205 81.6091 37.1625 81.2311C37.6108 80.9687 35.8519 80.6812 37.2359 80.3204C37.6702 80.2064 38.2591 80.8328 38.4513 80.5656C38.5762 80.3922 38.3107 80.1267 38.6731 80.1111C39.6588 80.0689 40.7242 80.1923 41.7036 80.3141C40.8163 78.449 38.9996 76.5135 36.9079 77.4882C36.8048 77.0712 37.0578 76.6384 37.6296 76.1901C36.2159 76.1495 35.1052 77.5835 35.138 78.952C34.8521 78.6661 34.7412 78.0022 34.8834 77.5492C33.4321 78.7411 33.5446 79.8502 33.5915 80.7968C33.1197 80.3376 32.9354 79.5846 32.9557 79.1488C32.6464 79.8486 32.3324 80.7718 32.0543 81.7529C32.5089 77.9053 31.5685 74 31.5685 74C31.3732 75.5387 31.1795 83.4509 30.9358 83.7602C30.8437 82.6214 30.8046 81.278 28.8863 80.0798C29.1269 80.6 29.0972 81.4076 28.802 81.795C28.6286 80.1548 27.0774 78.613 25.395 78.8817C26.1479 79.3284 26.5181 79.8064 26.4619 80.3219C24.4592 79.3956 22.4019 80.5938 21.6318 82.9604C25.1138 81.3904 22.7081 83.5134 24.2452 82.7151C24.8138 82.4199 27.4585 82.1168 26.1307 82.9416C25.0982 83.5837 27.7803 82.0278 29.394 84.7225C28.2427 84.1632 27.7022 83.4259 25.8089 83.554C26.2838 83.754 26.754 84.346 26.7931 84.8271C25.6824 83.7899 23.7235 83.7852 22.7784 85.1568C23.5454 84.9443 24.0796 85.024 24.3546 85.4286C20.9038 85.891 19.3339 89.3776 20.2634 91.5943C22.202 88.1904 21.1194 91.599 22.2504 89.3495C22.7284 88.4013 25.0372 87.3187 26.8743 87.9045V87.9014ZM30.6593 87.514L30.6734 87.5046L30.7218 89.0449L30.6703 90.1618C30.9077 90.6898 30.1032 90.6242 30.3938 91.26C30.8312 92.2223 29.708 92.0786 30.3047 92.6456C31.1436 93.4439 29.822 92.894 30.0689 93.9797L30.0111 95.1216C30.0142 95.4309 30.6125 95.5621 30.2282 95.8652L30.0704 98.752C29.2206 94.3686 28.2818 91.0819 30.6593 87.514Z" fill="#101020"/>
<path fill-rule="evenodd" clip-rule="evenodd" d="M1230.83 96.7596C1230.02 96.7782 1229.08 96.7519 1228.16 98.0493C1228.54 97.9012 1229.1 97.9539 1229.36 98.1776C1228.21 98.2346 1227.06 99.2601 1227.19 100.45C1227.53 99.9389 1227.88 99.6987 1228.24 99.7602C1226.45 101.803 1227.25 104.39 1228.88 105.025C1228.84 104.832 1228.63 101.846 1229.23 103.043C1229.85 104.257 1228.71 101.095 1229.41 101.305C1229.66 101.383 1229.56 98.6174 1231.53 98.5209C1230.92 98.9574 1230.19 99.4344 1230.27 100.874C1230.47 100.568 1230.93 100.31 1231.27 100.338C1230.42 100.99 1230.16 102.347 1230.98 103.162C1230.93 102.605 1231.06 102.243 1231.37 102.098C1231.39 103.173 1231.95 104.055 1233.02 104.999C1233.04 105.864 1233.47 105.751 1233.19 105.991L1233.34 106.737C1233.46 106.925 1232.97 107.491 1233.52 107.938C1234.03 108.359 1233.13 108.397 1233.76 109.444C1233.84 109.587 1234.26 109.681 1234.15 109.885C1233.68 110.801 1234.68 111.518 1234.62 111.704C1234.29 112.637 1235.15 112.922 1235.12 113.13L1235.17 114.306C1235.23 114.531 1235.53 114.511 1235.61 114.685C1235.65 114.774 1235.14 115.115 1235.57 115.735L1235.72 116.392L1235.77 117.341L1235.9 117.723C1234.8 117.812 1235.79 118.12 1234.31 118.558L1233.59 119.058C1235.36 118.164 1233.16 120.283 1234.25 119.592C1235.18 119.011 1234.69 119.892 1234.93 119.909C1235.13 119.913 1235.35 119.38 1235.36 119.754C1235.39 120.639 1236.54 118.348 1236.09 119.558L1236.78 119.095C1236.9 119.184 1236.87 120.909 1237.36 119.317C1237.58 118.622 1237.82 120.101 1238.15 119.738L1238.53 119.444L1239.29 119.592C1240.19 120.254 1239.02 118.641 1239.82 119.385L1240.61 119.469L1240.29 118.91C1239.29 118.033 1242.29 119.416 1240.88 118.713L1238.75 117.402C1237.26 115.175 1238.87 118.892 1238.44 116.71C1238.24 115.639 1236.66 116.635 1237.76 115.907C1238.49 115.427 1237.45 114.967 1237.45 114.966L1237.54 114.384C1236.71 112.272 1236.92 113.886 1236.55 113.249C1236.34 112.893 1237.17 113.461 1236.72 112.209L1236.25 111.162C1235.88 110.904 1236.53 110.502 1235.7 109.718C1235.43 109.463 1236.14 109.322 1235.36 108.565C1235.19 108.4 1235.67 107.842 1235.14 107.658C1234.86 107.56 1235.39 106.737 1234.92 106.341L1234.66 105.138L1234.4 103.783C1234.06 103.48 1234.81 103.559 1234.24 102.648L1234.16 101.017C1233.86 100.722 1234.55 100.604 1234.13 100.216C1233.75 99.8556 1234.62 99.9422 1234.12 99.1921C1233.88 98.8389 1234.68 98.8313 1234.09 98.2708L1234.37 97.7016C1234.39 97.4834 1234.42 97.2663 1234.45 97.0491L1234.94 99.8271C1234.97 99.7393 1235.25 98.6218 1235.28 98.4913C1236.31 100.477 1235.05 102.084 1235.66 101.368L1235.54 103.046L1235.83 104.944C1236.85 103.743 1237.32 102.725 1237.16 101.592C1237.49 101.683 1237.67 102.018 1237.71 102.576C1238.38 101.639 1237.91 100.34 1236.96 99.8391C1237.29 99.7558 1237.79 99.9345 1238.03 100.204C1237.88 98.7698 1237.07 98.4211 1236.41 98.091C1236.93 97.9473 1237.53 98.1107 1237.82 98.2928C1237.75 98.1151 1237.65 97.9484 1237.54 97.7927C1238.63 98.4726 1239.11 98.7446 1239.15 99.7284C1239.21 101.164 1239.58 97.8903 1240.02 100.715C1240.13 101.426 1240.42 99.7733 1240.88 101.615C1241.15 102.727 1240.28 103.859 1241.02 102.931C1241.52 102.313 1241.63 104.076 1241.7 104.768C1243.03 103.742 1243 100.781 1240.72 98.9497C1241.04 98.8082 1241.44 98.9947 1241.91 99.4739C1241.67 98.1634 1240.29 97.297 1239.2 97.4779C1239.37 97.1829 1239.88 97.0063 1240.28 97.0886C1239.03 95.88 1238.16 96.107 1237.41 96.2551L1238.66 95.5192L1237.11 95.052C1238.63 94.7241 1239.17 95.9436 1238.8 95.1891C1238.43 94.4357 1239.43 94.8842 1239.88 95.6113C1240.46 96.5457 1239.55 94.734 1240.33 95.347L1242.28 97.5755C1242.82 95.914 1242.09 93.7743 1240.78 93.7458C1240.96 93.4289 1241.37 93.3104 1241.98 93.3686C1241.14 92.5219 1239.62 92.7566 1238.84 93.6153C1238.83 93.2732 1239.15 92.8016 1239.5 92.6075C1237.92 92.4945 1237.34 93.2424 1236.82 93.85C1236.8 93.294 1237.12 92.7237 1237.39 92.4682C1236.62 92.602 1235.93 93.0845 1235.37 93.6702C1237.31 90.8692 1237.6 92.342 1238.05 92.0766C1238.36 91.8924 1237.13 91.6906 1238.1 91.4373C1238.41 91.3572 1238.82 91.797 1238.95 91.6095C1239.04 91.4877 1238.86 91.3013 1239.11 91.2903C1239.8 91.2607 1240.55 91.3473 1241.24 91.4329C1240.61 90.1234 1239.34 88.7646 1237.87 89.4489C1237.8 89.1561 1237.98 88.8523 1238.38 88.5376C1237.38 88.5091 1236.6 89.5158 1236.63 90.4766C1236.43 90.2759 1236.35 89.8098 1236.45 89.4917C1235.43 90.3285 1235.51 91.1072 1235.54 91.7718C1235.21 91.4493 1235.08 90.9207 1235.1 90.6147C1234.88 91.1061 1234.66 91.7542 1234.46 92.4429C1234.78 89.7418 1234.12 87 1234.12 87C1233.98 88.0803 1233.85 93.6351 1233.68 93.8522C1233.61 93.0527 1233.59 92.1095 1232.24 91.2684C1232.41 91.6336 1232.39 92.2006 1232.18 92.4726C1232.06 91.321 1230.97 90.2386 1229.79 90.4272C1230.32 90.7409 1230.58 91.0765 1230.54 91.4384C1229.13 90.788 1227.69 91.6292 1227.15 93.2907C1229.59 92.1885 1227.9 93.6789 1228.98 93.1185C1229.38 92.9112 1231.24 92.6985 1230.3 93.2775C1229.58 93.7283 1231.46 92.636 1232.6 94.5278C1231.79 94.1352 1231.41 93.6175 1230.08 93.7074C1230.41 93.8478 1230.74 94.2635 1230.77 94.6013C1229.99 93.873 1228.61 93.8698 1227.95 94.8327C1228.49 94.6835 1228.86 94.7394 1229.06 95.0235C1226.63 95.3481 1225.53 97.796 1226.18 99.3522C1227.55 96.9625 1226.79 99.3555 1227.58 97.7762C1227.92 97.1105 1229.54 96.3505 1230.83 96.7618V96.7596ZM1233.48 96.4876L1233.49 96.481L1233.53 97.5624L1233.49 98.3465C1233.66 98.7172 1233.09 98.6711 1233.3 99.1175C1233.6 99.7931 1232.82 99.6922 1233.23 100.09C1233.82 100.651 1232.9 100.265 1233.07 101.027L1233.03 101.829C1233.03 102.046 1233.45 102.138 1233.18 102.351L1233.07 104.377C1232.47 101.3 1231.81 98.9925 1233.48 96.4876Z" fill="#101020"/>
<path fill-rule="evenodd" clip-rule="evenodd" d="M11.7657 97.7596C12.5673 97.7782 13.5105 97.7519 14.4274 99.0493C14.0534 98.9012 13.4886 98.9539 13.2287 99.1776C14.3857 99.2346 15.5273 100.26 15.4067 101.45C15.0645 100.939 14.7136 100.699 14.355 100.76C16.1382 102.803 15.3431 105.39 13.7156 106.025C13.7518 105.832 13.9656 102.846 13.3603 104.043C12.7461 105.257 13.8801 102.095 13.1859 102.305C12.9271 102.383 13.0312 99.6174 11.066 99.5209C11.668 99.9574 12.4061 100.434 12.3195 101.874C12.1232 101.568 11.6593 101.31 11.3248 101.338C12.1747 101.99 12.427 103.347 11.611 104.162C11.6582 103.605 11.5364 103.243 11.225 103.098C11.1987 104.173 10.6393 105.055 9.57663 105.999C9.55031 106.864 9.12369 106.751 9.40225 106.991L9.252 107.737C9.13356 107.925 9.62598 108.491 9.07653 108.938C8.55779 109.359 9.46038 109.397 8.83526 110.444C8.74971 110.587 8.33187 110.681 8.43715 110.885C8.91093 111.801 7.90744 112.518 7.97215 112.704C8.29787 113.637 7.43805 113.922 7.47644 114.13L7.4216 115.306C7.36019 115.531 7.05969 115.511 6.98292 115.685C6.94234 115.774 7.44683 116.115 7.02679 116.735L6.87435 117.392L6.82061 118.341L6.6923 118.723C7.79448 118.812 6.80306 119.12 8.27923 119.558L9.00415 120.058C7.23297 119.164 9.43625 121.283 8.33735 120.592C7.41393 120.011 7.89867 120.892 7.66069 120.909C7.46547 120.913 7.24613 120.38 7.23187 120.754C7.19897 121.639 6.05511 119.348 6.50257 120.558L5.81164 120.095C5.69539 120.184 5.7239 121.909 5.22929 120.317C5.01434 119.622 4.77087 121.101 4.44515 120.738L4.06569 120.444L3.29799 120.592C2.40089 121.254 3.57217 119.641 2.77487 120.385L1.98414 120.469L2.30328 119.91C3.298 119.033 0.305087 120.416 1.70777 119.713L3.84086 118.402C5.33128 116.175 3.72351 119.892 4.14684 117.71C4.35522 116.639 5.93228 117.635 4.83119 116.907C4.10627 116.427 5.14484 115.967 5.14594 115.966L5.05601 115.384C5.88402 113.272 5.66907 114.886 6.04195 114.249C6.25032 113.893 5.4267 114.461 5.87196 113.209L6.34135 112.162C6.71313 111.904 6.06059 111.502 6.89299 110.718C7.16388 110.463 6.45212 110.322 7.23297 109.565C7.40296 109.4 6.91822 108.842 7.44683 108.658C7.72868 108.56 7.19897 107.737 7.67275 107.341L7.93596 106.138L8.19368 104.783C8.53147 104.48 7.78132 104.559 8.35051 103.648L8.42838 102.017C8.72778 101.722 8.04453 101.604 8.45689 101.216C8.84184 100.856 7.97544 100.942 8.47334 100.192C8.70804 99.8389 7.91293 99.8313 8.50624 99.2708L8.21891 98.7016C8.19697 98.4834 8.17175 98.2663 8.14433 98.0491L7.65301 100.827C7.62449 100.739 7.34154 99.6218 7.31303 99.4913C6.28542 101.477 7.54224 103.084 6.92699 102.368L7.0564 104.046L6.76139 105.944C5.74474 104.743 5.27535 103.725 5.43657 102.592C5.10536 102.683 4.92441 103.018 4.87944 103.576C4.20936 102.639 4.68313 101.34 5.62959 100.839C5.30496 100.756 4.80377 100.935 4.5603 101.204C4.71274 99.7698 5.52101 99.4211 6.18671 99.091C5.6603 98.9473 5.06369 99.1107 4.77526 99.2928C4.84435 99.1151 4.93757 98.9484 5.04833 98.7927C3.9604 99.4726 3.48663 99.7446 3.44166 100.728C3.37696 102.164 3.01285 98.8903 2.56978 101.715C2.45792 102.426 2.16729 100.773 1.71545 102.615C1.44237 103.727 2.30986 104.859 1.56739 103.931C1.07388 103.313 0.95982 105.076 0.887438 105.768C-0.439575 104.742 -0.405578 101.781 1.86899 99.9497C1.55314 99.8082 1.15394 99.9947 0.681257 100.474C0.925822 99.1634 2.2978 98.297 3.39341 98.4779C3.21903 98.1829 2.70797 98.0063 2.31535 98.0886C3.55791 96.88 4.42979 97.107 5.18213 97.2551L3.93408 96.5192L5.47715 96.052C3.95821 95.7241 3.42082 96.9436 3.79151 96.1891C4.1611 95.4357 3.16639 95.8842 2.71235 96.6113C2.13 97.5457 3.03698 95.734 2.25941 96.347L0.316054 98.5755C-0.224622 96.914 0.502493 94.7743 1.81196 94.7458C1.631 94.4289 1.22303 94.3104 0.612164 94.3686C1.45663 93.5219 2.97337 93.7566 3.74984 94.6153C3.75861 94.2732 3.44166 93.8016 3.08962 93.6075C4.67436 93.4945 5.25013 94.2424 5.77326 94.85C5.79519 94.294 5.47057 93.7237 5.20297 93.4682C5.97395 93.602 6.6572 94.0845 7.21762 94.6702C5.28193 91.8692 4.9935 93.342 4.54275 93.0766C4.228 92.8924 5.46289 92.6906 4.49121 92.4373C4.18632 92.3572 3.77287 92.797 3.63797 92.6095C3.55024 92.4877 3.73668 92.3013 3.48224 92.2903C2.79022 92.2607 2.04227 92.3473 1.35463 92.4329C1.97756 91.1234 3.25303 89.7646 4.72152 90.4489C4.7939 90.1561 4.61623 89.8523 4.21484 89.5376C5.20736 89.5091 5.98711 90.5158 5.96408 91.4766C6.16478 91.2759 6.24265 90.8098 6.14285 90.4917C7.16168 91.3285 7.08272 92.1072 7.04982 92.7718C7.38103 92.4493 7.51044 91.9207 7.49618 91.6147C7.71333 92.1061 7.93377 92.7542 8.12898 93.4429C7.80984 90.7418 8.47005 88 8.47005 88C8.60714 89.0803 8.74313 94.6351 8.91422 94.8522C8.97892 94.0527 9.00634 93.1095 10.3531 92.2684C10.1842 92.6336 10.205 93.2006 10.4123 93.4726C10.5341 92.321 11.6231 91.2386 12.8042 91.4272C12.2756 91.7409 12.0157 92.0765 12.0552 92.4384C13.4612 91.788 14.9055 92.6292 15.4462 94.2907C13.0016 93.1885 14.6906 94.6789 13.6114 94.1185C13.2122 93.9112 11.3555 93.6985 12.2877 94.2775C13.0126 94.7283 11.1296 93.636 9.99667 95.5278C10.8049 95.1352 11.1844 94.6175 12.5136 94.7074C12.1802 94.8478 11.8501 95.2635 11.8227 95.6013C12.6024 94.873 13.9777 94.8698 14.6412 95.8327C14.1027 95.6835 13.7277 95.7394 13.5346 96.0235C15.9573 96.3481 17.0594 98.796 16.4069 100.352C15.0459 97.9625 15.8059 100.355 15.0119 98.7762C14.6763 98.1105 13.0554 97.3505 11.7657 97.7618V97.7596ZM9.10834 97.4876L9.09847 97.481L9.06447 98.5624L9.10066 99.3465C8.93396 99.7172 9.49876 99.6711 9.29478 100.117C8.9877 100.793 9.77623 100.692 9.35729 101.09C8.76836 101.651 9.69617 101.265 9.52289 102.027L9.56347 102.829C9.56128 103.046 9.14124 103.138 9.41103 103.351L9.52179 105.377C10.1184 102.3 10.7775 99.9925 9.10834 97.4876Z" fill="#101020"/>
<defs>
<clipPath id="clip0">
<rect width="232" height="91" fill="white" transform="translate(994 58)"/>
</clipPath>
<clipPath id="clip1">
<rect width="162" height="91" fill="white" transform="matrix(-1 0 0 1 217 58)"/>
</clipPath>
</defs>
</svg>
