<svg width="30" height="30" viewBox="0 0 30 30" fill="none" xmlns="http://www.w3.org/2000/svg">
<path d="M25.2306 18.7677C24.1464 17.6972 22.7928 17.6972 21.7155 18.7677C20.8937 19.5825 20.0719 20.3974 19.2639 21.2262C19.0429 21.454 18.8564 21.5024 18.5871 21.3505C18.0554 21.0604 17.4891 20.8256 16.978 20.5079C14.5955 19.0094 12.5997 17.0826 10.8318 14.9142C9.95474 13.8368 9.17437 12.6836 8.6288 11.3852C8.51831 11.1228 8.53903 10.9502 8.75311 10.7361C9.57491 9.94191 10.376 9.12702 11.184 8.31212C12.3097 7.17955 12.3097 5.85362 11.1771 4.71414C10.5348 4.06499 9.89258 3.42965 9.25034 2.78049C8.58737 2.11752 7.93131 1.44765 7.26144 0.791591C6.17721 -0.265012 4.82365 -0.265012 3.74633 0.798497C2.91762 1.61339 2.12344 2.44901 1.28092 3.25009C0.500558 3.98902 0.106921 4.8937 0.0240507 5.9503C-0.107161 7.66987 0.314099 9.29276 0.908006 10.8742C2.12344 14.1476 3.97423 17.055 6.21864 19.7207C9.25034 23.3256 12.869 26.1777 17.1023 28.2356C19.0084 29.161 20.9835 29.8723 23.1312 29.9897C24.6091 30.0726 25.8936 29.6997 26.9225 28.5464C27.6269 27.7591 28.4211 27.0409 29.167 26.2882C30.2719 25.1694 30.2788 23.8159 29.1808 22.7109C27.8686 21.3919 26.5496 20.0798 25.2306 18.7677Z" fill="#734ce3"/>
</svg>
