<svg width="30" height="35" viewBox="0 0 30 35" fill="none" xmlns="http://www.w3.org/2000/svg">
<path d="M11.897 14.8827C10.9199 14.8827 10.1484 15.7398 10.1484 16.7855C10.1484 17.8313 10.937 18.6884 11.897 18.6884C12.8742 18.6884 13.6456 17.8313 13.6456 16.7855C13.6627 15.7398 12.8742 14.8827 11.897 14.8827ZM18.1542 14.8827C17.177 14.8827 16.4056 15.7398 16.4056 16.7855C16.4056 17.8313 17.1942 18.6884 18.1542 18.6884C19.1313 18.6884 19.9027 17.8313 19.9027 16.7855C19.9027 15.7398 19.1313 14.8827 18.1542 14.8827Z" fill="#734ce3"/>
<path d="M26.4857 0.5H3.51429C1.57714 0.5 0 2.07714 0 4.03143V27.2086C0 29.1629 1.57714 30.74 3.51429 30.74H22.9543L22.0457 27.5686L24.24 29.6086L26.3143 31.5286L30 34.7857V4.03143C30 2.07714 28.4229 0.5 26.4857 0.5ZM19.8686 22.8886C19.8686 22.8886 19.2514 22.1514 18.7371 21.5C20.9829 20.8657 21.84 19.46 21.84 19.46C21.1371 19.9229 20.4686 20.2486 19.8686 20.4714C19.0114 20.8314 18.1886 21.0714 17.3829 21.2086C15.7371 21.5171 14.2286 21.4314 12.9429 21.1914C11.9657 21.0029 11.1257 20.7286 10.4229 20.4543C10.0286 20.3 9.6 20.1114 9.17143 19.8714C9.12 19.8371 9.06857 19.82 9.01714 19.7857C8.98286 19.7686 8.96571 19.7514 8.94857 19.7343C8.64 19.5629 8.46857 19.4429 8.46857 19.4429C8.46857 19.4429 9.29143 20.8143 11.4686 21.4657C10.9543 22.1171 10.32 22.8886 10.32 22.8886C6.53143 22.7686 5.09143 20.2829 5.09143 20.2829C5.09143 14.7629 7.56 10.2886 7.56 10.2886C10.0286 8.43714 12.3771 8.48857 12.3771 8.48857L12.5486 8.69429C9.46286 9.58572 8.04 10.94 8.04 10.94C8.04 10.94 8.41714 10.7343 9.05143 10.4429C10.8857 9.63714 12.3429 9.41429 12.9429 9.36286C13.0457 9.34571 13.1314 9.32857 13.2343 9.32857C14.28 9.19143 15.4629 9.15714 16.6971 9.29429C18.3257 9.48286 20.0743 9.96286 21.8571 10.94C21.8571 10.94 20.5029 9.65429 17.5886 8.76286L17.8286 8.48857C17.8286 8.48857 20.1771 8.43714 22.6457 10.2886C22.6457 10.2886 25.1143 14.7629 25.1143 20.2829C25.1143 20.2829 23.6571 22.7686 19.8686 22.8886V22.8886Z" fill="#734ce3"/>
</svg>
