<svg width="36" height="36" viewBox="0 0 36 36" fill="none" xmlns="http://www.w3.org/2000/svg">
<path d="M23.8633 18.1845L35.9998 25.857V10.188L23.8633 18.1845Z" fill="#734ce3"/>
<path d="M0 10.188V25.857L12.1365 18.1845L0 10.188Z" fill="#734ce3"/>
<path d="M33.7499 5.625H2.24988C1.12713 5.625 0.236133 6.462 0.0673828 7.53975L17.9999 19.3545L35.9324 7.53975C35.7636 6.462 34.8726 5.625 33.7499 5.625Z" fill="#734ce3"/>
<path d="M21.8028 19.5436L18.619 21.6406C18.43 21.7644 18.2163 21.8251 18.0003 21.8251C17.7843 21.8251 17.5705 21.7644 17.3815 21.6406L14.1978 19.5414L0.0722656 28.4761C0.245516 29.5449 1.13202 30.3751 2.25027 30.3751H33.7503C34.8685 30.3751 35.755 29.5449 35.9283 28.4761L21.8028 19.5436Z" fill="#734ce3"/>
</svg>
