<svg width="74" height="75" viewBox="0 0 74 75" fill="none" xmlns="http://www.w3.org/2000/svg">
<path d="M8.23522 14.0515H6.40771V15.8341H8.23522V14.0515Z" fill="#734ce3"/>
<path d="M2.7498 14.0515H0.921387V15.8341H2.7498V14.0515Z" fill="#734ce3"/>
<path d="M5.49248 11.3767H3.66406V13.1602H5.49248V11.3767Z" fill="#734ce3"/>
<path d="M5.49248 16.7263H3.66406V18.5089H5.49248V16.7263Z" fill="#734ce3"/>
<path d="M17.3763 5.1377H15.5488V6.92118H17.3763V5.1377Z" fill="#734ce3"/>
<path d="M11.8919 5.1377H10.0635V6.92118H11.8919V5.1377Z" fill="#734ce3"/>
<path d="M14.6346 2.46387H12.8062V4.24644H14.6346V2.46387Z" fill="#734ce3"/>
<path d="M14.6346 7.8125H12.8062V9.59507H14.6346V7.8125Z" fill="#734ce3"/>
<path d="M64.0008 68.4282H62.1724V70.2108H64.0008V68.4282Z" fill="#734ce3"/>
<path d="M58.5169 68.4282H56.6885V70.2108H58.5169V68.4282Z" fill="#734ce3"/>
<path d="M61.2586 65.7543H59.4302V67.5368H61.2586V65.7543Z" fill="#734ce3"/>
<path d="M61.2586 71.1029H59.4302V72.8846H61.2586V71.1029Z" fill="#734ce3"/>
<path d="M73.1434 59.5143H71.3149V61.2969H73.1434V59.5143Z" fill="#734ce3"/>
<path d="M67.657 59.5143H65.8286V61.2969H67.657V59.5143Z" fill="#734ce3"/>
<path d="M70.4007 56.8405H68.5723V58.623H70.4007V56.8405Z" fill="#734ce3"/>
<path d="M70.4007 62.1891H68.5723V63.9698H70.4007V62.1891Z" fill="#734ce3"/>
<path d="M30.5163 20.1694L28.3468 22.2849L25.3245 19.3378L26.18 18.5042L27.7132 19.9998L28.9933 18.6867L26.18 15.9423L24.0105 18.0568L22.3646 16.4521L21.0845 17.7652L22.6974 19.3378L20.5288 21.4523L26.1791 26.9614L28.3477 24.8469L31.3709 27.7949L30.5154 28.6284L28.9923 27.1438L27.7123 28.4578L30.5154 31.1895L32.684 29.075L34.33 30.6796L35.6101 29.3666L33.9971 27.794L36.1657 25.6795L30.5163 20.1694ZM26.1782 24.3994L23.1559 21.4514L24.0114 20.6178L27.0337 23.5649L26.1782 24.3994ZM32.684 26.5121L29.6608 23.5649L30.5163 22.7305L33.5396 25.6785L32.684 26.5121Z" fill="#734ce3"/>
<path d="M21.0722 31.9371L23.4302 29.64L22.1505 28.3264L19.7925 30.6235L21.0722 31.9371Z" fill="#734ce3"/>
<path d="M35.619 15.1957L33.2627 17.4932L34.543 18.8063L36.8993 16.5088L35.619 15.1957Z" fill="#734ce3"/>
<path d="M43.8258 26.9467L45.1893 25.6153L43.8258 24.2848L42.4604 25.6153L43.8258 26.9467Z" fill="#FEE233"/>
<path d="M58.8053 54.825L40.7421 72.4389L24.4761 56.5764L51.2917 30.4293L67.5577 46.2918L62.8986 50.8354L64.1787 52.1457L70.1838 46.2918L70.182 46.29L73.7407 42.8202L72.4607 41.5089L68.8698 45.0081L65.423 41.6474L73.7407 33.5378L72.4607 32.2247L64.109 40.3673L60.6621 37.0039L73.8709 24.1234L72.589 22.8103L59.3472 35.7229L51.2917 27.8673L21.8481 56.5764L40.7421 75L60.0872 56.1381L58.8053 54.825Z" fill="#FEE233"/>
<path d="M48.185 48.0395L46.0173 50.1549L42.9941 47.2069L43.8506 46.3725L45.3856 47.8699L46.6656 46.5568L43.8515 43.8114L41.6829 45.9277L40.0351 44.3221L38.755 45.6352L40.3698 47.2097L38.2012 49.3251L43.8515 54.8342L46.0192 52.7188L49.0433 55.6668L48.1859 56.4994L46.6647 55.0148L45.3846 56.3288L48.1878 59.0604L50.3564 56.9459L52.0033 58.5506L53.2833 57.2375L51.6704 55.664L53.8399 53.5504L48.185 48.0395ZM43.8487 52.2694L40.8255 49.3214L41.6819 48.487L44.7052 51.435L43.8487 52.2694ZM50.3546 54.383L47.3295 51.4341L48.185 50.6006L51.2101 53.5504L50.3546 54.383Z" fill="#734ce3"/>
<path d="M38.7436 59.8076L41.1006 57.5095L39.8203 56.1964L37.4633 58.4945L38.7436 59.8076Z" fill="#734ce3"/>
<path d="M53.2893 43.0636L50.9326 45.3594L52.2117 46.6724L54.5683 44.3766L53.2893 43.0636Z" fill="#734ce3"/>
<path d="M61.4966 54.815L62.861 53.4835L61.4966 52.1521L60.1294 53.4835L61.4966 54.815Z" fill="#FEE233"/>
<path d="M50.0666 12.2368L51.3467 10.9237L48.9818 8.61758L55.6546 5.68331L53.3521 3.43859L65.8301 3.74761L66.2124 15.978L63.9109 13.7333L60.8996 20.2382L55.2318 14.7099L53.9499 16.023L61.4745 23.3614L64.4849 16.8565L68.1894 20.4675L67.609 1.9577L48.726 1.48914L52.4278 5.09829L45.7578 8.03256L50.0666 12.2368Z" fill="#FEE233"/>
<path d="M51.2881 13.5463L52.5801 14.8062L54.0151 13.4069L52.7222 12.147L51.2881 13.5463Z" fill="#FEE233"/>
<path d="M13.4509 52.1411L7.32834 56.029L4.03187 52.8151L0 56.7442L0.190727 73.6191L17.4507 73.807L21.5055 69.8522L18.2007 66.63L22.1895 60.6587L13.4509 52.1411ZM16.7134 71.9667L2.00447 71.8072L1.84309 57.5099L3.19377 56.1932L3.72561 70.1768L18.0173 70.693L16.7134 71.9667ZM15.8304 66.8822L17.8514 68.8527L5.49351 68.4071L5.03594 56.3564L7.08627 58.3563L13.2088 54.4693L19.8183 60.9118L15.8304 66.8822Z" fill="#FEE233"/>
<path d="M1.43144 52.4859L14.9988 39.2606L23.0726 47.1317L42.4177 28.269L41.1376 26.9559L23.0726 44.5707L6.80666 28.71L33.6213 2.56107L49.8891 18.4226L45.2291 22.9653L46.511 24.2783L52.5171 18.4226L33.6213 0L4.85262 28.0535L4.83703 28.037L0.281575 32.4778L1.56165 33.7909L5.47615 29.9745L8.92301 33.3352L0.281575 41.7602L1.56165 43.0733L10.2361 34.6162L13.6848 37.9786L0.151367 51.1746L1.43144 52.4859Z" fill="#FEE233"/>
<path d="M53.5392 66.4373L54.8198 67.75L73.7696 49.2635L72.489 47.9508L53.5392 66.4373Z" fill="#FEE233"/>
<path d="M20.6405 8.52012L19.3599 7.2074L0.409441 25.6945L1.69007 27.0072L20.6405 8.52012Z" fill="#FEE233"/>
<path d="M23.2411 5.88045L21.9482 4.61963L20.6553 5.88045L21.9482 7.14035L23.2411 5.88045Z" fill="#FEE233"/>
<path d="M50.8232 69.125L52.1162 70.3858L53.4082 69.125L52.1162 67.8651L50.8232 69.125Z" fill="#FEE233"/>
</svg>
