<svg width="75" height="75" viewBox="0 0 75 75" fill="none" xmlns="http://www.w3.org/2000/svg">
<path d="M74.1008 67.6012L74.0056 35.2725L57.769 35.3201V0H0V70.8962H51.2978V69.0667H1.82958V1.82958H55.9394V35.3255L22.6822 35.4234V35.449H7.32473V37.2786H22.6877L22.7289 51.306H7.31924V53.1356H22.7344L22.7527 59.2345H7.31924V61.0641H22.7572L22.7765 67.7549L56.8048 67.6552L56.824 75L61.9716 71.5942L67.1383 74.9698L67.1173 67.6222L74.1008 67.6012ZM58.5923 54.0303L65.2447 54.0111L65.2639 60.5436L58.6115 60.5628L58.5923 54.0303ZM61.9642 69.4042L58.6445 71.6016L58.6189 62.3942L65.2712 62.375L65.2987 71.5823L61.9642 69.4042ZM67.098 60.5363H67.0935L67.0697 52.1741L56.7591 52.2034L56.7884 62.3997H56.7911L56.8012 65.8256L24.6033 65.9207L24.5191 37.2475L72.1824 37.1076L72.2694 65.7771L67.1163 65.7945L67.098 60.5363Z" fill="#FEE233"/>
<path d="M66.1231 40.5527L43.9385 40.6171L43.9438 42.4466L66.1284 42.3823L66.1231 40.5527Z" fill="#FEE233"/>
<path d="M43.9644 46.4303L43.9697 48.2599L66.1516 48.1956L66.1463 46.366L43.9644 46.4303Z" fill="#FEE233"/>
<path d="M51.4006 52.2179L43.9771 52.2394L43.9824 54.069L51.4059 54.0474L51.4006 52.2179Z" fill="#FEE233"/>
<path d="M43.9957 58.0534L44.001 59.8829L51.4254 59.8614L51.4201 58.0318L43.9957 58.0534Z" fill="#FEE233"/>
<path d="M13.5375 43.3774H7.3252V45.207H13.5375V43.3774Z" fill="#FEE233"/>
<path d="M73.1831 3.88782H71.3535V5.7174H73.1831V3.88782Z" fill="#734ce3"/>
<path d="M36.5662 43.1263L35.2725 44.42L36.5662 45.7138L37.8599 44.42L36.5662 43.1263Z" fill="#734ce3"/>
<path d="M36.5662 54.5394L35.2725 55.8331L36.5662 57.1268L37.8599 55.8331L36.5662 54.5394Z" fill="#734ce3"/>
<path d="M67.6948 3.88782H65.8652V5.7174H67.6948V3.88782Z" fill="#734ce3"/>
<path d="M31.0779 43.1263L29.7842 44.42L31.0779 45.7138L32.3716 44.42L31.0779 43.1263Z" fill="#734ce3"/>
<path d="M31.0779 54.5394L29.7842 55.8331L31.0779 57.1268L32.3716 55.8331L31.0779 54.5394Z" fill="#734ce3"/>
<path d="M70.439 1.14355H68.6094V2.97313H70.439V1.14355Z" fill="#734ce3"/>
<path d="M33.822 40.3819L32.5283 41.6757L33.822 42.9694L35.1157 41.6757L33.822 40.3819Z" fill="#734ce3"/>
<path d="M33.822 51.795L32.5283 53.0887L33.822 54.3825L35.1157 53.0887L33.822 51.795Z" fill="#734ce3"/>
<path d="M70.439 6.6322H68.6094V8.46178H70.439V6.6322Z" fill="#734ce3"/>
<path d="M33.822 45.8707L32.5283 47.1644L33.822 48.4581L35.1157 47.1644L33.822 45.8707Z" fill="#734ce3"/>
<path d="M33.822 57.2838L32.5283 58.5775L33.822 59.8712L35.1157 58.5775L33.822 57.2838Z" fill="#734ce3"/>
<path d="M66.7798 24.928H64.9502V26.7576H66.7798V24.928Z" fill="#734ce3"/>
<path d="M61.291 24.928H59.4614V26.7576H61.291V24.928Z" fill="#734ce3"/>
<path d="M64.0352 22.1836H62.2056V24.0132H64.0352V22.1836Z" fill="#734ce3"/>
<path d="M64.0352 27.6724H62.2056V29.5019H64.0352V27.6724Z" fill="#734ce3"/>
<path d="M54.957 69.0667H53.1274V70.8962H54.957V69.0667Z" fill="#FEE233"/>
<path d="M20.8555 43.3774H19.0259V45.207H20.8555V43.3774Z" fill="#FEE233"/>
<path d="M17.1963 43.3774H15.3667V45.207H17.1963V43.3774Z" fill="#FEE233"/>
<path d="M21.6755 10.7149L17.3202 6.46021H12.0537V22.19H17.3202L21.6755 17.9353V10.7149ZM19.8459 17.1651L16.5755 20.3604H13.8833V8.28979H16.5755L19.8459 11.4851V17.1651Z" fill="#734ce3"/>
<path d="M24.231 6.46021V22.18H33.7576V6.46021H24.231ZM31.928 20.3504H26.0605V8.28979H31.928V20.3504Z" fill="#734ce3"/>
<path d="M44.9674 8.3026V6.47302H36.9419V22.1928H44.9674V20.3632H38.7715V8.3026H44.9674Z" fill="#734ce3"/>
<path d="M51.0105 27.5964H6.92676V29.426H51.0105V27.5964Z" fill="#FEE233"/>
</svg>
