<svg width="71" height="86" viewBox="0 0 71 86" fill="none" xmlns="http://www.w3.org/2000/svg">
<path d="M60.5359 79.9189H58.4814V81.9725H60.5359V79.9189Z" fill="#734ce3"/>
<path d="M66.6956 79.9189H64.6431V81.9725H66.6956V79.9189Z" fill="#734ce3"/>
<path d="M63.6155 76.8391H61.561V78.8926H63.6155V76.8391Z" fill="#734ce3"/>
<path d="M63.6155 82.9998H61.561V85.0523H63.6155V82.9998Z" fill="#734ce3"/>
<path d="M6.2562 79.9189H4.20361V81.9725H6.2562V79.9189Z" fill="#734ce3"/>
<path d="M12.4168 79.9189H10.3633V81.9725H12.4168V79.9189Z" fill="#734ce3"/>
<path d="M9.33722 76.8391H7.28369V78.8926H9.33722V76.8391Z" fill="#734ce3"/>
<path d="M9.33722 82.9998H7.28369V85.0523H9.33722V82.9998Z" fill="#734ce3"/>
<path d="M42.4527 22.4571H18.4207V1.89527H52.4579V22.4571H48.6238V24.3524H54.3532V0H16.5254V24.3524H42.4527V22.4571Z" fill="#FEE233"/>
<path d="M23.01 11H18V12.8953H23.01V11Z" fill="#FEE233"/>
<circle cx="35.5" cy="12" r="7.5" fill="#734ce3"/>
<path d="M40 11H31V13H40V11Z" fill="#FEE233"/>
<path d="M34.5 7.5V16.5H36.5V7.5H34.5Z" fill="#FEE233"/>
<path d="M53.01 11H48V12.8953H53.01V11Z" fill="#FEE233"/>
<path d="M31.8128 41.1511H26.0322V47.3202H31.8128V41.1511ZM29.9175 45.425H27.9275V43.0464H29.9175V45.425Z" fill="#734ce3"/>
<path d="M44.8455 41.1511H39.063V47.3202H44.8455V41.1511ZM42.9502 45.425H40.9583V43.0464H42.9502V45.425Z" fill="#734ce3"/>
<path d="M34.4837 59.0756H36.3932H38.3681H42.1766V52.9037H38.3681H36.3932H34.4837H32.5875H28.7031V59.0756H32.5875H34.4837ZM38.3681 54.799H40.2814V57.1804H38.3681V54.799ZM34.4837 54.799H36.3932V57.1804H34.4837V54.799ZM30.5984 54.799H32.5875V57.1804H30.5984V54.799Z" fill="#734ce3"/>
<path d="M50.4939 49.0421H48.5503V51.18H50.4939V49.0421Z" fill="#FEE233"/>
<path d="M50.4939 53.316H48.5503V55.4549H50.4939V53.316Z" fill="#FEE233"/>
<path d="M67.8395 38.8493L70.2995 38.3717L68.6762 28.2434L63.288 29.2896L63.9286 33.2753L61.9726 33.6534L61.3339 29.6696L55.9457 30.7139L57.5709 40.8422L60.0035 40.3703L62.4825 55.8452L51.18 73.5764L40.3523 73.5783V67.4452H50.9535V57.5898H49.0582V65.5481H40.3523H30.5253H21.8184V35.3876H49.0573V46.8948H50.9526V33.4923H41.1189L46.1642 27.9411L44.7617 26.6665L38.5584 33.4923H32.3201L26.1169 26.6665L24.7144 27.9411L29.7596 33.4923H19.9241V67.4452H30.5262V73.5783H19.6786L8.39417 55.8452L10.8732 40.3703L13.3067 40.8422L14.931 30.7139L9.54366 29.6696L8.90495 33.6534L6.94997 33.2753L7.58868 29.2896L2.20231 28.2434L0.578059 38.3717L3.03623 38.8493L0 57.8229L13.5048 79.0424L18.2354 82.5468V86H52.6384V82.5345L57.369 79.0434L70.8729 57.8248L67.8395 38.8493ZM8.45198 43.5089L4.34018 42.711L4.90023 39.2094L9.01298 40.0073L8.45198 43.5089ZM8.15252 45.3823L7.52045 49.3217L3.40865 48.5238L4.03978 44.5825L8.15252 45.3823ZM2.74152 36.8612L3.76496 30.4779L5.42807 30.801L4.78936 34.7878L10.4676 35.887L11.1063 31.9031L12.7704 32.2253L11.7469 38.6096L10.2857 38.3262V38.3243L4.3108 37.1644V37.1663L2.74152 36.8612ZM3.1092 50.3963L7.22005 51.1942L6.58798 55.1364L2.47712 54.3404L3.1092 50.3963ZM1.98625 57.4135L2.17862 56.211L5.97296 56.9454L3.09877 59.161L1.98625 57.4135ZM4.12033 60.7672L7.58205 58.0996L9.63747 61.3301L6.1767 63.9968L4.12033 60.7672ZM7.19825 65.603L10.659 62.9364L12.7145 66.1659L9.25273 68.8316L7.19825 65.603ZM10.2752 70.4369L13.736 67.7712L15.7914 71.0008L12.3316 73.6665L10.2752 70.4369ZM18.2373 80.1881L14.9168 77.7271L13.3541 75.2708L16.8139 72.6051L18.2373 74.8425V80.1881ZM32.4215 67.4452H38.458V73.5764H32.4215V67.4452ZM50.745 84.1047H20.1326V75.4736H50.745V84.1047ZM68.3995 54.3441L64.2915 55.1402L63.6585 51.198L67.7684 50.402L68.3995 54.3441ZM63.36 49.3255L62.7289 45.3861L66.8388 44.5873L67.4689 48.5285L63.36 49.3255ZM59.1326 38.6096L58.1082 32.2253L59.7722 31.9031L60.4109 35.887L66.0911 34.7878L65.4505 30.801L67.1145 30.4779L68.138 36.8612L65.6779 37.3388V37.3407L61.5671 38.1386V38.1367L59.1326 38.6096ZM62.4275 43.5127L61.8665 40.0111L65.9774 39.2132L66.5384 42.7147L62.4275 43.5127ZM55.9637 77.7271L52.6403 80.1777V74.8122L54.0599 72.5852L57.532 75.2595L55.9637 77.7271ZM58.5564 73.6579L55.0843 70.9818L57.1425 67.7551L60.6109 70.4265L58.5564 73.6579ZM61.6324 68.8212L58.1641 66.1489L60.2224 62.9212L63.6888 65.5907L61.6324 68.8212ZM64.7085 63.9854L61.2458 61.3178L63.3041 58.0883L66.7648 60.7559L64.7085 63.9854ZM64.9283 56.9464L68.699 56.2157L68.8904 57.4135L67.7855 59.1506L64.9283 56.9464Z" fill="#FEE233"/>
<path d="M67.0394 11.2295H59.1162V13.1248H67.0394V11.2295Z" fill="#FEE233"/>
<path d="M11.764 11.2295H3.83887V13.1248H11.764V11.2295Z" fill="#FEE233"/>
<path d="M57.3639 21.1651L64.811 23.8735L65.4588 22.0924L58.0117 19.3839L57.3639 21.1651Z" fill="#FEE233"/>
<path d="M13.5161 3.18961L6.06982 0.47876L5.42145 2.25975L12.8678 4.9706L13.5161 3.18961Z" fill="#FEE233"/>
<path d="M65.4599 2.2552L64.812 0.475098L57.3657 3.18515L58.0136 4.96525L65.4599 2.2552Z" fill="#FEE233"/>
<path d="M5.42202 22.0911L6.06982 23.8723L13.516 21.1642L12.8682 19.383L5.42202 22.0911Z" fill="#FEE233"/>
<path d="M46.5706 22.3784H44.5181V24.431H46.5706V22.3784Z" fill="#FEE233"/>
</svg>
